<svg width="731" height="471" viewBox="0 0 731 471" fill="none" xmlns="http://www.w3.org/2000/svg">
<g filter="url(#filter0_f_1507_248)">
<path d="M168.081 436.879V303.916H34L168.081 436.879Z" fill="url(#paint0_linear_1507_248)"/>
</g>
<g filter="url(#filter1_f_1507_248)">
<path d="M696.024 298.888L563.061 298.888L563.061 432.969L696.024 298.888Z" fill="url(#paint1_linear_1507_248)"/>
</g>
<g filter="url(#filter2_d_1507_248)">
<g clip-path="url(#clip0_1507_248)">
<rect x="152" width="429" height="429" rx="5" fill="white"/>
<g filter="url(#filter3_d_1507_248)">
<circle cx="367" cy="215" r="325" fill="#3C543C"/>
</g>
<g filter="url(#filter4_d_1507_248)">
<circle cx="367" cy="215" r="275" fill="#3C543C"/>
</g>
<g filter="url(#filter5_d_1507_248)">
<circle cx="367" cy="215" r="225" fill="#3C543C"/>
</g>
<g filter="url(#filter6_d_1507_248)">
<circle cx="367" cy="215" r="175" fill="#3C543C"/>
</g>
<g filter="url(#filter7_d_1507_248)">
<circle cx="367" cy="215" r="125" fill="#3C543C"/>
</g>
<g filter="url(#filter8_d_1507_248)">
<circle cx="367" cy="215" r="75" fill="#3C543C"/>
</g>
<g filter="url(#filter9_d_1507_248)">
<circle cx="367" cy="215" r="25" fill="#3C543C"/>
</g>
<path d="M378.086 313.943C378.086 312.87 378.956 312 380.029 312H381.971C383.044 312 383.914 312.87 383.914 313.943V321.58C383.914 323.705 386.839 324.287 387.652 322.323L390.575 315.267C390.985 314.276 392.122 313.805 393.113 314.216L394.908 314.959C395.9 315.37 396.37 316.506 395.96 317.498L393.036 324.556C392.222 326.52 394.701 328.177 396.205 326.673L401.607 321.271C402.365 320.513 403.596 320.513 404.354 321.271L405.728 322.645C406.487 323.404 406.487 324.634 405.728 325.393L400.329 330.792C398.825 332.296 400.482 334.775 402.446 333.961L409.501 331.039C410.492 330.628 411.629 331.099 412.039 332.09L412.783 333.885C413.193 334.877 412.723 336.013 411.731 336.424L404.672 339.348C402.708 340.161 403.289 343.086 405.415 343.086H413.057C414.13 343.086 415 343.956 415 345.029V346.971C415 348.044 414.13 348.914 413.057 348.914L348.943 348.914C347.87 348.914 347 348.044 347 346.971V345.029C347 343.956 347.87 343.086 348.943 343.086H356.583C358.709 343.086 359.29 340.161 357.326 339.348L350.267 336.424C349.276 336.013 348.805 334.877 349.216 333.886L349.959 332.091C350.37 331.099 351.506 330.628 352.498 331.039L359.554 333.962C361.518 334.775 363.174 332.296 361.671 330.793L356.271 325.393C355.513 324.635 355.513 323.404 356.271 322.646L357.645 321.272C358.404 320.513 359.634 320.513 360.393 321.272L365.794 326.673C367.297 328.176 369.776 326.519 368.962 324.555L366.039 317.498C365.628 316.507 366.099 315.37 367.091 314.959L368.886 314.216C369.877 313.805 371.013 314.276 371.424 315.267L374.348 322.326C375.161 324.291 378.086 323.709 378.086 321.583V313.943Z" fill="#FFD600"/>
<path d="M350.342 353.771C349.09 353.771 348.163 354.939 348.536 356.134C348.778 356.91 349.047 357.675 349.342 358.426C349.624 359.144 350.328 359.6 351.1 359.6H410.9C411.672 359.6 412.376 359.144 412.658 358.426C412.953 357.675 413.222 356.91 413.464 356.134C413.837 354.939 412.91 353.771 411.658 353.771H350.342Z" fill="#FFD600"/>
<path d="M356.014 364.457C354.474 364.457 353.569 366.151 354.537 367.349C355.203 368.173 355.906 368.966 356.645 369.724C357 370.088 357.49 370.286 357.998 370.286H404.002C404.51 370.286 405 370.088 405.355 369.724C406.094 368.966 406.797 368.173 407.463 367.349C408.431 366.151 407.526 364.457 405.986 364.457H356.014Z" fill="#FFD600"/>
<path d="M381 380C384.927 380 388.699 379.334 392.208 378.109C394.067 377.461 393.502 375.143 391.534 375.143H370.466C368.498 375.143 367.933 377.461 369.792 378.109C373.301 379.334 377.073 380 381 380Z" fill="#FFD600"/>
<g filter="url(#filter10_d_1507_248)">
<path d="M190.505 137H227.27C227.87 137 228.425 136.895 228.935 136.685C229.445 136.445 229.895 136.22 230.285 136.01C230.675 135.77 230.96 135.65 231.14 135.65C231.29 135.65 231.41 135.71 231.5 135.83C231.59 135.92 231.68 136.19 231.77 136.64L234.605 152.345C234.695 152.585 234.71 152.78 234.65 152.93C234.62 153.05 234.53 153.125 234.38 153.155C234.26 153.185 234.14 153.17 234.02 153.11C233.93 153.02 233.825 152.885 233.705 152.705C232.115 148.505 230.645 145.355 229.295 143.255C227.945 141.125 226.61 139.715 225.29 139.025C223.97 138.335 222.575 137.99 221.105 137.99H213.815V197.3C213.815 197.69 213.95 197.99 214.22 198.2C214.49 198.38 214.91 198.515 215.48 198.605L219.575 199.19C219.935 199.25 220.115 199.4 220.115 199.64C220.115 199.88 219.935 200 219.575 200H198.695C198.515 200 198.38 199.97 198.29 199.91C198.2 199.82 198.155 199.73 198.155 199.64C198.155 199.4 198.35 199.25 198.74 199.19L202.79 198.605C203.36 198.515 203.78 198.38 204.05 198.2C204.32 197.99 204.455 197.69 204.455 197.3V137.99H197.21C195.68 137.99 194.255 138.38 192.935 139.16C191.615 139.94 190.28 141.395 188.93 143.525C187.61 145.625 186.155 148.685 184.565 152.705C184.475 152.885 184.37 153.02 184.25 153.11C184.16 153.17 184.04 153.185 183.89 153.155C183.77 153.125 183.695 153.05 183.665 152.93C183.635 152.78 183.635 152.585 183.665 152.345L186.545 136.64C186.635 136.19 186.725 135.92 186.815 135.83C186.905 135.71 187.01 135.65 187.13 135.65C187.31 135.65 187.55 135.77 187.85 136.01C188.15 136.22 188.525 136.445 188.975 136.685C189.425 136.895 189.935 137 190.505 137ZM250.764 134.39V197.345C250.764 197.765 250.854 198.095 251.034 198.335C251.214 198.545 251.499 198.695 251.889 198.785L254.679 199.19C255.009 199.25 255.174 199.4 255.174 199.64C255.174 199.88 255.009 200 254.679 200H238.524C238.404 200 238.299 199.97 238.209 199.91C238.149 199.82 238.119 199.73 238.119 199.64C238.119 199.55 238.164 199.46 238.254 199.37C238.374 199.28 238.554 199.205 238.794 199.145L241.494 198.785C241.914 198.695 242.214 198.545 242.394 198.335C242.574 198.095 242.664 197.795 242.664 197.435V138.44C242.664 138.23 242.619 138.08 242.529 137.99C242.439 137.87 242.274 137.81 242.034 137.81L238.569 137.765C238.449 137.765 238.344 137.735 238.254 137.675C238.194 137.585 238.164 137.495 238.164 137.405C238.164 137.285 238.194 137.195 238.254 137.135C238.344 137.075 238.464 137.015 238.614 136.955L249.144 133.985C249.444 133.895 249.654 133.835 249.774 133.805C249.924 133.775 250.059 133.76 250.179 133.76C250.389 133.76 250.539 133.82 250.629 133.94C250.719 134.06 250.764 134.21 250.764 134.39ZM250.044 168.95L249.594 168.455L251.124 167.015C254.064 164.375 256.569 162.5 258.639 161.39C260.709 160.28 262.704 159.725 264.624 159.725C267.474 159.725 269.694 160.67 271.284 162.56C272.874 164.42 273.924 167.255 274.434 171.065L277.899 196.985C277.959 197.525 278.094 197.96 278.304 198.29C278.544 198.59 278.919 198.785 279.429 198.875L281.814 199.235C281.994 199.265 282.114 199.325 282.174 199.415C282.234 199.475 282.264 199.55 282.264 199.64C282.264 199.73 282.219 199.82 282.129 199.91C282.069 199.97 281.964 200 281.814 200H265.389C265.029 200 264.849 199.88 264.849 199.64C264.849 199.43 265.029 199.28 265.389 199.19L268.269 198.785C268.809 198.695 269.184 198.485 269.394 198.155C269.604 197.825 269.679 197.435 269.619 196.985L266.424 171.92C266.034 169.01 265.314 166.88 264.264 165.53C263.244 164.15 261.744 163.46 259.764 163.46C258.444 163.46 257.124 163.805 255.804 164.495C254.514 165.155 253.104 166.175 251.574 167.555L250.044 168.95ZM318.382 176.06C318.382 176.39 318.277 176.645 318.067 176.825C317.857 177.005 317.557 177.095 317.167 177.095H289.357V176.285H309.382C309.952 176.285 310.237 175.985 310.237 175.385C310.237 170.495 309.427 166.805 307.807 164.315C306.217 161.825 304.177 160.58 301.687 160.58C299.557 160.58 297.727 161.225 296.197 162.515C294.667 163.805 293.497 165.71 292.687 168.23C291.877 170.72 291.472 173.765 291.472 177.365C291.472 183.515 292.792 188.195 295.432 191.405C298.102 194.585 301.567 196.175 305.827 196.175C308.827 196.175 311.392 195.32 313.522 193.61C315.682 191.9 316.987 189.59 317.437 186.68C317.497 186.53 317.557 186.425 317.617 186.365C317.677 186.305 317.737 186.275 317.797 186.275C317.917 186.275 318.007 186.32 318.067 186.41C318.127 186.47 318.157 186.59 318.157 186.77C317.887 189.47 317.017 191.885 315.547 194.015C314.077 196.145 312.172 197.825 309.832 199.055C307.492 200.285 304.852 200.9 301.912 200.9C298.342 200.9 295.207 200.105 292.507 198.515C289.807 196.895 287.707 194.6 286.207 191.63C284.707 188.66 283.957 185.18 283.957 181.19C283.957 177.02 284.722 173.33 286.252 170.12C287.812 166.88 289.987 164.33 292.777 162.47C295.597 160.61 298.897 159.68 302.677 159.68C305.857 159.68 308.617 160.385 310.957 161.795C313.327 163.205 315.157 165.14 316.447 167.6C317.737 170.06 318.382 172.88 318.382 176.06ZM390.668 182.81C390.368 185.42 389.588 187.85 388.328 190.1C387.098 192.35 385.463 194.33 383.423 196.04C381.413 197.72 379.058 199.04 376.358 200C373.658 200.93 370.673 201.395 367.403 201.395C361.493 201.395 356.378 200.045 352.058 197.345C347.738 194.615 344.408 190.85 342.068 186.05C339.728 181.22 338.558 175.625 338.558 169.265C338.558 164.345 339.263 159.845 340.673 155.765C342.113 151.685 344.123 148.16 346.703 145.19C349.313 142.19 352.403 139.88 355.973 138.26C359.543 136.61 363.473 135.785 367.763 135.785C370.793 135.785 373.283 136.13 375.233 136.82C377.213 137.51 378.728 138.2 379.778 138.89C380.828 139.58 381.473 139.925 381.713 139.925C382.013 139.925 382.418 139.595 382.928 138.935C383.468 138.245 383.978 137.57 384.458 136.91C384.968 136.22 385.298 135.875 385.448 135.875C385.598 135.875 385.718 135.92 385.808 136.01C385.928 136.1 386.003 136.28 386.033 136.55L390.803 153.155C390.863 153.365 390.863 153.56 390.803 153.74C390.743 153.89 390.608 153.995 390.398 154.055C390.218 154.085 390.038 154.04 389.858 153.92C389.708 153.8 389.573 153.62 389.453 153.38C387.923 149.48 386.138 146.33 384.098 143.93C382.088 141.53 379.868 139.775 377.438 138.665C375.008 137.555 372.368 137 369.518 137C366.488 137 363.698 137.645 361.148 138.935C358.598 140.225 356.378 142.1 354.488 144.56C352.628 147.02 351.173 150.035 350.123 153.605C349.103 157.145 348.593 161.195 348.593 165.755C348.593 172.595 349.583 178.37 351.563 183.08C353.543 187.76 356.288 191.315 359.798 193.745C363.308 196.175 367.358 197.39 371.948 197.39C376.748 197.39 380.678 196.07 383.738 193.43C386.828 190.76 388.913 187.19 389.993 182.72C390.053 182.57 390.113 182.465 390.173 182.405C390.233 182.345 390.308 182.33 390.398 182.36C390.518 182.36 390.593 182.405 390.623 182.495C390.653 182.585 390.668 182.69 390.668 182.81ZM445.41 160.175C445.41 164.225 444.495 167.75 442.665 170.75C440.835 173.75 438.3 176.075 435.06 177.725C431.82 179.375 428.055 180.2 423.765 180.2C420.825 180.2 418.095 179.855 415.575 179.165C413.085 178.475 410.805 177.38 408.735 175.88L408.96 175.16C410.31 176.09 411.675 176.84 413.055 177.41C414.435 177.95 415.8 178.34 417.15 178.58C418.53 178.79 419.85 178.895 421.11 178.895C424.08 178.895 426.69 178.13 428.94 176.6C431.22 175.04 432.99 172.835 434.25 169.985C435.54 167.135 436.185 163.79 436.185 159.95C436.185 155.33 435.36 151.385 433.71 148.115C432.06 144.845 429.78 142.34 426.87 140.6C423.96 138.83 420.6 137.945 416.79 137.945H411.885V197.3C411.885 197.63 412.005 197.9 412.245 198.11C412.515 198.32 412.89 198.47 413.37 198.56L417.825 199.235C418.005 199.265 418.14 199.31 418.23 199.37C418.32 199.43 418.365 199.52 418.365 199.64C418.365 199.73 418.32 199.82 418.23 199.91C418.14 199.97 418.005 200 417.825 200H396.81C396.63 200 396.48 199.97 396.36 199.91C396.27 199.82 396.225 199.715 396.225 199.595C396.225 199.415 396.405 199.28 396.765 199.19L401.085 198.56C401.595 198.47 401.955 198.32 402.165 198.11C402.405 197.9 402.525 197.63 402.525 197.3V139.79C402.525 139.43 402.405 139.145 402.165 138.935C401.955 138.695 401.625 138.53 401.175 138.44L396.675 137.765C396.375 137.735 396.225 137.615 396.225 137.405C396.225 137.255 396.27 137.15 396.36 137.09C396.45 137.03 396.585 137 396.765 137H416.79C422.49 137 427.485 137.975 431.775 139.925C436.065 141.845 439.41 144.545 441.81 148.025C444.21 151.475 445.41 155.525 445.41 160.175ZM457.082 175.61H480.887L481.022 176.645H456.857L457.082 175.61ZM458.477 199.64C458.477 199.73 458.432 199.82 458.342 199.91C458.282 199.97 458.177 200 458.027 200H445.022C444.872 200 444.752 199.97 444.662 199.91C444.602 199.82 444.572 199.73 444.572 199.64C444.572 199.52 444.617 199.43 444.707 199.37C444.797 199.31 444.887 199.25 444.977 199.19L447.047 198.605C447.857 198.335 448.637 197.795 449.387 196.985C450.137 196.145 450.797 194.765 451.367 192.845L466.892 141.41C467.192 140.48 467.177 139.745 466.847 139.205C466.547 138.665 465.917 138.26 464.957 137.99C464.627 137.84 464.387 137.735 464.237 137.675C464.087 137.585 464.012 137.48 464.012 137.36C464.012 137.24 464.057 137.15 464.147 137.09C464.237 137.03 464.387 137 464.597 137H479.177C479.327 137 479.447 137.03 479.537 137.09C479.627 137.15 479.672 137.24 479.672 137.36C479.672 137.48 479.597 137.585 479.447 137.675C479.327 137.765 479.102 137.855 478.772 137.945C477.902 138.035 477.392 138.215 477.242 138.485C477.092 138.725 477.122 139.205 477.332 139.925L495.692 196.715C495.932 197.495 496.307 198.08 496.817 198.47C497.327 198.83 498.002 199.055 498.842 199.145C499.052 199.205 499.187 199.265 499.247 199.325C499.337 199.385 499.382 199.49 499.382 199.64C499.382 199.73 499.337 199.82 499.247 199.91C499.157 199.97 499.037 200 498.887 200H481.922C481.772 200 481.652 199.97 481.562 199.91C481.472 199.82 481.427 199.73 481.427 199.64C481.427 199.49 481.472 199.4 481.562 199.37C481.682 199.31 481.832 199.25 482.012 199.19L484.487 198.92C485.177 198.77 485.597 198.5 485.747 198.11C485.927 197.69 485.912 197.135 485.702 196.445L467.792 140.51L468.737 139.025L452.492 192.935C452.162 194.015 452.102 194.945 452.312 195.725C452.552 196.475 453.002 197.105 453.662 197.615C454.322 198.095 455.147 198.485 456.137 198.785L457.982 199.235C458.162 199.265 458.282 199.31 458.342 199.37C458.432 199.43 458.477 199.52 458.477 199.64ZM219.35 270.47L218.18 271.865L234.785 228.35C234.995 227.78 235.205 227.42 235.415 227.27C235.625 227.09 235.91 227 236.27 227H248.555C248.705 227 248.825 227.045 248.915 227.135C249.035 227.195 249.095 227.27 249.095 227.36C249.095 227.48 249.05 227.57 248.96 227.63C248.87 227.69 248.72 227.75 248.51 227.81L244.19 228.44C243.71 228.53 243.35 228.755 243.11 229.115C242.9 229.475 242.81 229.955 242.84 230.555L246.845 286.715C246.905 287.375 247.025 287.825 247.205 288.065C247.385 288.305 247.775 288.485 248.375 288.605L252.38 289.19C252.56 289.22 252.695 289.265 252.785 289.325C252.875 289.385 252.92 289.49 252.92 289.64C252.92 289.73 252.875 289.82 252.785 289.91C252.695 289.97 252.56 290 252.38 290H231.77C231.59 290 231.455 289.97 231.365 289.91C231.275 289.82 231.23 289.73 231.23 289.64C231.23 289.52 231.26 289.43 231.32 289.37C231.41 289.28 231.56 289.22 231.77 289.19L235.82 288.605C236.45 288.485 236.885 288.29 237.125 288.02C237.365 287.75 237.47 287.33 237.44 286.76L233.57 232.625L234.425 232.31L215.795 282.485C215.645 282.935 215.495 283.235 215.345 283.385C215.195 283.505 215.045 283.565 214.895 283.565C214.805 283.565 214.7 283.535 214.58 283.475C214.49 283.415 214.4 283.31 214.31 283.16C214.22 282.98 214.115 282.755 213.995 282.485L193.925 233.03L194.69 231.95L191.135 284.105C191.075 285.185 191.36 286.085 191.99 286.805C192.62 287.495 193.505 287.99 194.645 288.29L199.55 289.235C199.73 289.265 199.865 289.31 199.955 289.37C200.045 289.43 200.09 289.52 200.09 289.64C200.09 289.73 200.045 289.82 199.955 289.91C199.865 289.97 199.73 290 199.55 290H182.675C182.495 290 182.36 289.97 182.27 289.91C182.21 289.82 182.18 289.73 182.18 289.64C182.18 289.49 182.225 289.4 182.315 289.37C182.435 289.31 182.57 289.25 182.72 289.19L186.185 288.335C187.325 288.035 188.225 287.54 188.885 286.85C189.575 286.13 189.965 285.2 190.055 284.06L193.565 232.94C193.685 231.59 193.625 230.54 193.385 229.79C193.145 229.04 192.665 228.62 191.945 228.53L188.345 227.99C187.955 227.93 187.67 227.87 187.49 227.81C187.31 227.75 187.22 227.645 187.22 227.495C187.22 227.165 187.52 227 188.12 227H200.495C200.855 227 201.14 227.09 201.35 227.27C201.56 227.42 201.755 227.735 201.935 228.215L219.35 270.47ZM279.905 285.725V285.365L279.545 285.635V258.68C279.545 256.01 279.005 253.97 277.925 252.56C276.845 251.12 275.24 250.4 273.11 250.4C270.8 250.4 269.09 250.955 267.98 252.065C266.9 253.145 266.36 254.3 266.36 255.53V258.635C266.36 259.895 265.94 260.93 265.1 261.74C264.26 262.52 263.195 262.91 261.905 262.91C260.945 262.91 260.15 262.595 259.52 261.965C258.89 261.335 258.575 260.42 258.575 259.22C258.575 257.66 259.16 256.16 260.33 254.72C261.53 253.25 263.285 252.05 265.595 251.12C267.905 250.16 270.74 249.68 274.1 249.68C278.66 249.68 282.065 250.685 284.315 252.695C286.565 254.705 287.69 257.495 287.69 261.065V285.005C287.69 286.205 287.885 287.06 288.275 287.57C288.665 288.08 289.16 288.335 289.76 288.335C290.33 288.335 290.825 288.17 291.245 287.84C291.665 287.51 291.92 287.03 292.01 286.4C292.04 286.28 292.07 286.205 292.1 286.175C292.16 286.115 292.22 286.085 292.28 286.085C292.4 286.085 292.475 286.115 292.505 286.175C292.535 286.235 292.55 286.325 292.55 286.445C292.55 286.955 292.325 287.555 291.875 288.245C291.455 288.905 290.765 289.49 289.805 290C288.845 290.54 287.6 290.81 286.07 290.81C284 290.81 282.455 290.345 281.435 289.415C280.415 288.485 279.905 287.255 279.905 285.725ZM256.415 281.315C256.415 278.195 257.72 275.645 260.33 273.665C262.94 271.685 266.885 270.695 272.165 270.695C274.265 270.695 276.02 270.89 277.43 271.28C278.84 271.67 280.145 272.15 281.345 272.72L281.03 273.215C279.83 272.705 278.6 272.285 277.34 271.955C276.08 271.625 274.67 271.46 273.11 271.46C270.38 271.46 268.295 272.24 266.855 273.8C265.415 275.33 264.695 277.415 264.695 280.055C264.695 282.665 265.355 284.69 266.675 286.13C268.025 287.57 269.795 288.29 271.985 288.29C273.545 288.29 275.075 287.96 276.575 287.3C278.075 286.61 279.335 285.605 280.355 284.285L280.805 284.735C279.425 286.685 277.565 288.185 275.225 289.235C272.915 290.285 270.425 290.81 267.755 290.81C264.365 290.81 261.62 289.94 259.52 288.2C257.45 286.43 256.415 284.135 256.415 281.315ZM307.704 268.265C307.704 264.185 308.274 260.78 309.414 258.05C310.554 255.29 312.009 253.22 313.779 251.84C315.579 250.43 317.424 249.725 319.314 249.725C321.504 249.725 323.184 250.385 324.354 251.705C325.554 252.995 326.154 254.765 326.154 257.015C326.154 258.785 325.749 260.105 324.939 260.975C324.129 261.845 323.124 262.28 321.924 262.28C320.754 262.28 319.869 261.95 319.269 261.29C318.669 260.63 318.339 259.64 318.279 258.32V257.015C318.249 255.965 318.024 255.2 317.604 254.72C317.184 254.21 316.464 253.955 315.444 253.955C314.274 253.955 313.134 254.495 312.024 255.575C310.944 256.655 310.044 258.275 309.324 260.435C308.634 262.565 308.289 265.235 308.289 268.445L307.704 268.265ZM308.244 250.76L308.289 265.835V287.21C308.289 287.57 308.379 287.87 308.559 288.11C308.769 288.35 309.084 288.515 309.504 288.605L313.914 289.19C314.124 289.25 314.259 289.31 314.319 289.37C314.409 289.43 314.454 289.52 314.454 289.64C314.454 289.73 314.409 289.82 314.319 289.91C314.229 289.97 314.094 290 313.914 290H296.139C295.989 290 295.854 289.955 295.734 289.865C295.644 289.775 295.599 289.685 295.599 289.595C295.599 289.505 295.644 289.43 295.734 289.37C295.854 289.28 296.019 289.205 296.229 289.145L299.019 288.785C299.409 288.695 299.694 288.545 299.874 288.335C300.054 288.095 300.144 287.825 300.144 287.525V254.495C300.144 254.315 300.099 254.165 300.009 254.045C299.949 253.895 299.799 253.82 299.559 253.82H296.004C295.914 253.79 295.824 253.745 295.734 253.685C295.674 253.625 295.644 253.55 295.644 253.46C295.644 253.34 295.674 253.25 295.734 253.19C295.824 253.1 295.959 253.04 296.139 253.01L306.669 250.31C306.939 250.22 307.149 250.175 307.299 250.175C307.449 250.145 307.584 250.13 307.704 250.13C307.884 250.13 308.004 250.19 308.064 250.31C308.154 250.43 308.214 250.58 308.244 250.76ZM329.139 290C329.019 290 328.914 289.97 328.824 289.91C328.764 289.82 328.734 289.73 328.734 289.64C328.734 289.55 328.779 289.46 328.869 289.37C328.989 289.28 329.169 289.205 329.409 289.145L332.109 288.785C332.529 288.695 332.829 288.545 333.009 288.335C333.189 288.095 333.279 287.795 333.279 287.435V228.44C333.279 228.23 333.234 228.08 333.144 227.99C333.054 227.87 332.889 227.81 332.649 227.81L329.184 227.765C329.064 227.765 328.959 227.735 328.869 227.675C328.809 227.585 328.779 227.495 328.779 227.405C328.779 227.285 328.809 227.195 328.869 227.135C328.959 227.075 329.079 227.015 329.229 226.955L339.759 223.985C340.059 223.895 340.269 223.835 340.389 223.805C340.539 223.775 340.674 223.76 340.794 223.76C341.004 223.76 341.154 223.82 341.244 223.94C341.334 224.06 341.379 224.21 341.379 224.39V287.345C341.379 287.765 341.469 288.095 341.649 288.335C341.829 288.545 342.114 288.695 342.504 288.785L345.294 289.19C345.624 289.25 345.789 289.4 345.789 289.64C345.789 289.88 345.624 290 345.294 290H329.139ZM339.849 274.655L357.714 256.835C358.944 255.635 359.439 254.555 359.199 253.595C358.989 252.605 358.149 251.99 356.679 251.75L354.879 251.435C354.699 251.405 354.564 251.36 354.474 251.3C354.384 251.21 354.339 251.12 354.339 251.03C354.339 250.88 354.384 250.775 354.474 250.715C354.594 250.655 354.729 250.625 354.879 250.625H369.144C369.354 250.625 369.504 250.67 369.594 250.76C369.684 250.82 369.729 250.91 369.729 251.03C369.729 251.15 369.669 251.255 369.549 251.345C369.459 251.405 369.279 251.465 369.009 251.525C367.179 251.855 365.409 252.47 363.699 253.37C361.989 254.27 360.339 255.515 358.749 257.105L340.299 275.42L339.849 274.655ZM352.494 262.64L366.579 286.4C367.119 287.33 367.674 287.975 368.244 288.335C368.844 288.695 369.624 288.98 370.584 289.19C370.824 289.28 370.974 289.355 371.034 289.415C371.124 289.475 371.169 289.565 371.169 289.685C371.169 289.775 371.124 289.85 371.034 289.91C370.974 289.97 370.854 290 370.674 290H353.709C353.589 290 353.484 289.97 353.394 289.91C353.304 289.85 353.259 289.76 353.259 289.64C353.259 289.55 353.304 289.46 353.394 289.37C353.484 289.28 353.619 289.235 353.799 289.235L355.869 288.92C356.619 288.83 357.084 288.56 357.264 288.11C357.474 287.66 357.354 287.075 356.904 286.355L346.779 268.445L352.494 262.64ZM407.415 266.06C407.415 266.39 407.31 266.645 407.1 266.825C406.89 267.005 406.59 267.095 406.2 267.095H378.39V266.285H398.415C398.985 266.285 399.27 265.985 399.27 265.385C399.27 260.495 398.46 256.805 396.84 254.315C395.25 251.825 393.21 250.58 390.72 250.58C388.59 250.58 386.76 251.225 385.23 252.515C383.7 253.805 382.53 255.71 381.72 258.23C380.91 260.72 380.505 263.765 380.505 267.365C380.505 273.515 381.825 278.195 384.465 281.405C387.135 284.585 390.6 286.175 394.86 286.175C397.86 286.175 400.425 285.32 402.555 283.61C404.715 281.9 406.02 279.59 406.47 276.68C406.53 276.53 406.59 276.425 406.65 276.365C406.71 276.305 406.77 276.275 406.83 276.275C406.95 276.275 407.04 276.32 407.1 276.41C407.16 276.47 407.19 276.59 407.19 276.77C406.92 279.47 406.05 281.885 404.58 284.015C403.11 286.145 401.205 287.825 398.865 289.055C396.525 290.285 393.885 290.9 390.945 290.9C387.375 290.9 384.24 290.105 381.54 288.515C378.84 286.895 376.74 284.6 375.24 281.63C373.74 278.66 372.99 275.18 372.99 271.19C372.99 267.02 373.755 263.33 375.285 260.12C376.845 256.88 379.02 254.33 381.81 252.47C384.63 250.61 387.93 249.68 391.71 249.68C394.89 249.68 397.65 250.385 399.99 251.795C402.36 253.205 404.19 255.14 405.48 257.6C406.77 260.06 407.415 262.88 407.415 266.06ZM414.685 252.2L410.68 251.435C410.47 251.405 410.32 251.36 410.23 251.3C410.17 251.21 410.14 251.105 410.14 250.985C410.14 250.895 410.185 250.82 410.275 250.76C410.365 250.67 410.455 250.625 410.545 250.625H414.595C414.895 250.625 415.12 250.58 415.27 250.49C415.45 250.4 415.6 250.25 415.72 250.04L421.885 241.985C422.065 241.805 422.23 241.67 422.38 241.58C422.53 241.49 422.68 241.445 422.83 241.445C422.98 241.445 423.1 241.505 423.19 241.625C423.31 241.715 423.37 241.865 423.37 242.075V280.775C423.37 283.055 423.805 284.765 424.675 285.905C425.575 287.015 426.805 287.57 428.365 287.57C429.025 287.57 429.625 287.48 430.165 287.3C430.705 287.12 431.185 286.85 431.605 286.49C432.055 286.13 432.46 285.68 432.82 285.14C433.18 284.6 433.495 283.985 433.765 283.295C433.855 283.145 433.945 283.1 434.035 283.16C434.155 283.19 434.2 283.31 434.17 283.52C433.72 285.11 433.09 286.445 432.28 287.525C431.5 288.605 430.51 289.415 429.31 289.955C428.14 290.465 426.745 290.72 425.125 290.72C422.095 290.72 419.725 289.985 418.015 288.515C416.335 287.045 415.495 284.795 415.495 281.765V253.19C415.495 252.89 415.435 252.665 415.315 252.515C415.225 252.335 415.015 252.23 414.685 252.2ZM420.58 251.66L420.805 250.625H433.63C433.84 250.625 433.975 250.655 434.035 250.715C434.125 250.775 434.17 250.88 434.17 251.03C434.17 251.21 434.065 251.36 433.855 251.48C433.645 251.6 433.33 251.66 432.91 251.66H420.58ZM449.885 250.58V287.345C449.885 287.765 449.975 288.095 450.155 288.335C450.365 288.545 450.665 288.695 451.055 288.785L453.8 289.19C454.01 289.22 454.145 289.28 454.205 289.37C454.295 289.43 454.34 289.52 454.34 289.64C454.34 289.73 454.295 289.82 454.205 289.91C454.145 289.97 454.025 290 453.845 290H437.69C437.57 290 437.465 289.97 437.375 289.91C437.285 289.82 437.24 289.73 437.24 289.64C437.24 289.55 437.27 289.475 437.33 289.415C437.42 289.355 437.555 289.295 437.735 289.235L440.66 288.785C441.05 288.695 441.335 288.545 441.515 288.335C441.695 288.095 441.785 287.795 441.785 287.435V254.63C441.785 254.42 441.74 254.27 441.65 254.18C441.56 254.06 441.41 253.985 441.2 253.955H437.735C437.585 253.955 437.465 253.925 437.375 253.865C437.315 253.775 437.285 253.685 437.285 253.595C437.285 253.475 437.33 253.385 437.42 253.325C437.51 253.265 437.63 253.205 437.78 253.145L448.265 250.175C448.565 250.055 448.775 249.995 448.895 249.995C449.045 249.965 449.18 249.95 449.3 249.95C449.51 249.95 449.66 250.01 449.75 250.13C449.84 250.25 449.885 250.4 449.885 250.58ZM445.565 242.615C444.035 242.615 442.79 242.105 441.83 241.085C440.9 240.065 440.435 238.82 440.435 237.35C440.435 235.85 440.915 234.59 441.875 233.57C442.835 232.55 444.065 232.04 445.565 232.04C447.065 232.04 448.295 232.565 449.255 233.615C450.245 234.635 450.74 235.88 450.74 237.35C450.74 238.82 450.245 240.065 449.255 241.085C448.295 242.105 447.065 242.615 445.565 242.615ZM470.226 250.58V287.345C470.226 287.765 470.316 288.095 470.496 288.335C470.676 288.545 470.961 288.695 471.351 288.785L474.141 289.19C474.471 289.25 474.636 289.4 474.636 289.64C474.636 289.88 474.471 290 474.141 290H457.986C457.866 290 457.761 289.97 457.671 289.91C457.611 289.82 457.581 289.73 457.581 289.64C457.581 289.55 457.611 289.475 457.671 289.415C457.761 289.355 457.881 289.295 458.031 289.235L460.956 288.785C461.376 288.695 461.676 288.545 461.856 288.335C462.036 288.095 462.126 287.795 462.126 287.435V254.63C462.126 254.42 462.081 254.27 461.991 254.18C461.901 254.06 461.736 253.985 461.496 253.955H458.031C457.911 253.955 457.806 253.925 457.716 253.865C457.656 253.775 457.626 253.685 457.626 253.595C457.626 253.475 457.656 253.385 457.716 253.325C457.806 253.265 457.926 253.205 458.076 253.145L468.606 250.175C468.906 250.055 469.116 249.995 469.236 249.995C469.386 249.965 469.521 249.95 469.641 249.95C469.851 249.95 470.001 250.01 470.091 250.13C470.181 250.25 470.226 250.4 470.226 250.58ZM469.506 258.95L469.056 258.455L470.586 257.015C473.526 254.375 476.031 252.5 478.101 251.39C480.171 250.28 482.166 249.725 484.086 249.725C486.936 249.725 489.156 250.67 490.746 252.56C492.336 254.42 493.386 257.255 493.896 261.065L497.361 286.985C497.421 287.525 497.556 287.96 497.766 288.29C498.006 288.59 498.381 288.785 498.891 288.875L501.276 289.235C501.456 289.265 501.576 289.325 501.636 289.415C501.696 289.475 501.726 289.55 501.726 289.64C501.726 289.73 501.681 289.82 501.591 289.91C501.531 289.97 501.426 290 501.276 290H484.851C484.491 290 484.311 289.88 484.311 289.64C484.311 289.43 484.491 289.28 484.851 289.19L487.731 288.785C488.271 288.695 488.646 288.485 488.856 288.155C489.066 287.825 489.141 287.435 489.081 286.985L485.886 261.92C485.496 259.01 484.776 256.88 483.726 255.53C482.706 254.15 481.206 253.46 479.226 253.46C477.906 253.46 476.586 253.805 475.266 254.495C473.976 255.155 472.566 256.175 471.036 257.555L469.506 258.95ZM529.202 289.415C532.772 290.225 535.547 291.11 537.527 292.07C539.507 293.06 540.887 294.185 541.667 295.445C542.447 296.735 542.837 298.265 542.837 300.035C542.837 303.575 541.127 306.47 537.707 308.72C534.287 311 529.442 312.14 523.172 312.14C518.462 312.14 514.592 311.69 511.562 310.79C508.562 309.92 506.342 308.72 504.902 307.19C503.462 305.66 502.742 303.92 502.742 301.97C502.742 299.51 503.867 297.395 506.117 295.625C508.367 293.885 512.147 292.64 517.457 291.89L517.637 292.43C514.607 292.94 512.312 293.87 510.752 295.22C509.222 296.6 508.457 298.19 508.457 299.99C508.457 303.32 509.687 306.005 512.147 308.045C514.607 310.115 518.462 311.15 523.712 311.15C526.532 311.15 528.872 310.85 530.732 310.25C532.592 309.65 533.987 308.765 534.917 307.595C535.847 306.425 536.312 305 536.312 303.32C536.312 302.15 535.982 301.1 535.322 300.17C534.692 299.24 533.522 298.385 531.812 297.605C530.102 296.825 527.672 296.045 524.522 295.265C520.742 294.275 517.787 293.36 515.657 292.52C513.527 291.68 512.027 290.795 511.157 289.865C510.317 288.935 509.897 287.825 509.897 286.535C509.897 285.425 510.182 284.405 510.752 283.475C511.352 282.545 512.327 281.735 513.677 281.045C515.027 280.325 516.872 279.71 519.212 279.2L519.257 279.605C518.417 279.935 517.712 280.385 517.142 280.955C516.602 281.495 516.332 282.11 516.332 282.8C516.332 283.52 516.617 284.18 517.187 284.78C517.787 285.38 519.002 286.04 520.832 286.76C522.662 287.45 525.452 288.335 529.202 289.415ZM529.697 252.335L530.147 251.48C531.347 249.38 532.652 247.685 534.062 246.395C535.472 245.105 537.137 244.46 539.057 244.46C540.767 244.46 542.117 244.94 543.107 245.9C544.127 246.86 544.637 248.09 544.637 249.59C544.637 250.73 544.352 251.645 543.782 252.335C543.212 252.995 542.372 253.325 541.262 253.325C540.482 253.325 539.822 253.085 539.282 252.605C538.742 252.125 538.247 251.57 537.797 250.94C537.377 250.28 536.942 249.71 536.492 249.23C536.042 248.75 535.517 248.51 534.917 248.51C534.077 248.51 533.312 248.87 532.622 249.59C531.932 250.28 531.212 251.21 530.462 252.38L529.697 252.335ZM539.687 264.62C539.687 267.62 538.907 270.29 537.347 272.63C535.817 274.97 533.717 276.815 531.047 278.165C528.407 279.485 525.437 280.145 522.137 280.145C518.687 280.145 515.657 279.485 513.047 278.165C510.467 276.845 508.442 275.075 506.972 272.855C505.502 270.635 504.767 268.175 504.767 265.475C504.767 262.445 505.487 259.745 506.927 257.375C508.397 255.005 510.467 253.13 513.137 251.75C515.837 250.37 519.017 249.68 522.677 249.68C526.097 249.68 529.082 250.355 531.632 251.705C534.182 253.055 536.162 254.855 537.572 257.105C538.982 259.355 539.687 261.86 539.687 264.62ZM520.742 250.76C519.062 250.79 517.607 251.39 516.377 252.56C515.147 253.7 514.202 255.275 513.542 257.285C512.912 259.295 512.687 261.635 512.867 264.305C513.047 267.215 513.617 269.795 514.577 272.045C515.537 274.265 516.782 275.99 518.312 277.22C519.872 278.45 521.612 279.035 523.532 278.975C526.112 278.915 528.137 277.67 529.607 275.24C531.077 272.78 531.677 269.54 531.407 265.52C531.137 260.99 530.027 257.375 528.077 254.675C526.157 251.975 523.712 250.67 520.742 250.76ZM234.56 340.175C234.56 344.225 233.645 347.75 231.815 350.75C229.985 353.75 227.45 356.075 224.21 357.725C220.97 359.375 217.205 360.2 212.915 360.2C209.975 360.2 207.245 359.855 204.725 359.165C202.235 358.475 199.955 357.38 197.885 355.88L198.11 355.16C199.46 356.09 200.825 356.84 202.205 357.41C203.585 357.95 204.95 358.34 206.3 358.58C207.68 358.79 209 358.895 210.26 358.895C213.23 358.895 215.84 358.13 218.09 356.6C220.37 355.04 222.14 352.835 223.4 349.985C224.69 347.135 225.335 343.79 225.335 339.95C225.335 335.33 224.51 331.385 222.86 328.115C221.21 324.845 218.93 322.34 216.02 320.6C213.11 318.83 209.75 317.945 205.94 317.945H201.035V377.3C201.035 377.63 201.155 377.9 201.395 378.11C201.665 378.32 202.04 378.47 202.52 378.56L206.975 379.235C207.155 379.265 207.29 379.31 207.38 379.37C207.47 379.43 207.515 379.52 207.515 379.64C207.515 379.73 207.47 379.82 207.38 379.91C207.29 379.97 207.155 380 206.975 380H185.96C185.78 380 185.63 379.97 185.51 379.91C185.42 379.82 185.375 379.715 185.375 379.595C185.375 379.415 185.555 379.28 185.915 379.19L190.235 378.56C190.745 378.47 191.105 378.32 191.315 378.11C191.555 377.9 191.675 377.63 191.675 377.3V319.79C191.675 319.43 191.555 319.145 191.315 318.935C191.105 318.695 190.775 318.53 190.325 318.44L185.825 317.765C185.525 317.735 185.375 317.615 185.375 317.405C185.375 317.255 185.42 317.15 185.51 317.09C185.6 317.03 185.735 317 185.915 317H205.94C211.64 317 216.635 317.975 220.925 319.925C225.215 321.845 228.56 324.545 230.96 328.025C233.36 331.475 234.56 335.525 234.56 340.175ZM258.197 339.725C262.037 339.725 265.442 340.61 268.412 342.38C271.412 344.12 273.767 346.55 275.477 349.67C277.187 352.79 278.042 356.39 278.042 360.47C278.042 364.49 277.172 368.045 275.432 371.135C273.692 374.195 271.292 376.595 268.232 378.335C265.202 380.045 261.707 380.9 257.747 380.9C253.907 380.9 250.502 380.045 247.532 378.335C244.592 376.595 242.267 374.195 240.557 371.135C238.877 368.075 238.037 364.52 238.037 360.47C238.037 356.42 238.892 352.85 240.602 349.76C242.312 346.64 244.667 344.195 247.667 342.425C250.697 340.625 254.207 339.725 258.197 339.725ZM260.357 379.955C262.607 379.745 264.482 378.815 265.982 377.165C267.512 375.485 268.592 373.13 269.222 370.1C269.852 367.07 269.927 363.44 269.447 359.21C268.997 354.89 268.142 351.32 266.882 348.5C265.622 345.68 264.047 343.625 262.157 342.335C260.267 341.015 258.137 340.46 255.767 340.67C253.397 340.88 251.447 341.84 249.917 343.55C248.417 345.26 247.382 347.63 246.812 350.66C246.272 353.69 246.227 357.29 246.677 361.46C247.157 365.63 248.027 369.125 249.287 371.945C250.577 374.765 252.167 376.85 254.057 378.2C255.947 379.55 258.047 380.135 260.357 379.955ZM311.897 374.285V374.105V318.44C311.897 318.23 311.852 318.08 311.762 317.99C311.672 317.87 311.507 317.81 311.267 317.81L307.802 317.765C307.652 317.765 307.547 317.735 307.487 317.675C307.427 317.585 307.397 317.495 307.397 317.405C307.397 317.285 307.427 317.195 307.487 317.135C307.577 317.075 307.697 317.015 307.847 316.955L318.377 313.985C318.677 313.895 318.887 313.835 319.007 313.805C319.157 313.775 319.292 313.76 319.412 313.76C319.592 313.76 319.727 313.82 319.817 313.94C319.937 314.06 319.997 314.21 319.997 314.39V377.345C319.997 377.765 320.087 378.095 320.267 378.335C320.447 378.545 320.732 378.695 321.122 378.785L323.912 379.19C324.122 379.22 324.257 379.28 324.317 379.37C324.407 379.43 324.452 379.52 324.452 379.64C324.452 379.73 324.407 379.82 324.317 379.91C324.227 379.97 324.107 380 323.957 380H313.427C312.947 380 312.572 379.865 312.302 379.595C312.032 379.295 311.897 378.845 311.897 378.245V374.285ZM282.647 361.325C282.647 356.855 283.487 353.015 285.167 349.805C286.877 346.565 289.142 344.075 291.962 342.335C294.782 340.595 297.872 339.725 301.232 339.725C304.322 339.725 306.932 340.4 309.062 341.75C311.192 343.1 312.917 344.885 314.237 347.105L313.427 347.6C312.377 345.62 310.952 344.045 309.152 342.875C307.352 341.705 305.252 341.12 302.852 341.12C300.662 341.12 298.652 341.81 296.822 343.19C295.022 344.54 293.582 346.655 292.502 349.535C291.422 352.385 290.882 356.045 290.882 360.515C290.882 364.535 291.362 367.895 292.322 370.595C293.282 373.265 294.587 375.29 296.237 376.67C297.917 378.02 299.837 378.695 301.997 378.695C303.677 378.695 305.432 378.23 307.262 377.3C309.092 376.37 310.862 374.825 312.572 372.665L313.067 373.25C310.697 376.07 308.432 378.05 306.272 379.19C304.112 380.33 301.742 380.9 299.162 380.9C296.012 380.9 293.192 380.105 290.702 378.515C288.212 376.925 286.247 374.66 284.807 371.72C283.367 368.78 282.647 365.315 282.647 361.325Z" fill="#EFE9D1"/>
</g>
</g>
</g>
<defs>
<filter id="filter0_f_1507_248" x="0" y="269.916" width="202.081" height="200.963" filterUnits="userSpaceOnUse" color-interpolation-filters="sRGB">
<feFlood flood-opacity="0" result="BackgroundImageFix"/>
<feBlend mode="normal" in="SourceGraphic" in2="BackgroundImageFix" result="shape"/>
<feGaussianBlur stdDeviation="17" result="effect1_foregroundBlur_1507_248"/>
</filter>
<filter id="filter1_f_1507_248" x="529.061" y="264.889" width="200.963" height="202.08" filterUnits="userSpaceOnUse" color-interpolation-filters="sRGB">
<feFlood flood-opacity="0" result="BackgroundImageFix"/>
<feBlend mode="normal" in="SourceGraphic" in2="BackgroundImageFix" result="shape"/>
<feGaussianBlur stdDeviation="17" result="effect1_foregroundBlur_1507_248"/>
</filter>
<filter id="filter2_d_1507_248" x="148" y="0" width="437" height="437" filterUnits="userSpaceOnUse" color-interpolation-filters="sRGB">
<feFlood flood-opacity="0" result="BackgroundImageFix"/>
<feColorMatrix in="SourceAlpha" type="matrix" values="0 0 0 0 0 0 0 0 0 0 0 0 0 0 0 0 0 0 127 0" result="hardAlpha"/>
<feOffset dy="4"/>
<feGaussianBlur stdDeviation="2"/>
<feComposite in2="hardAlpha" operator="out"/>
<feColorMatrix type="matrix" values="0 0 0 0 0 0 0 0 0 0 0 0 0 0 0 0 0 0 0.25 0"/>
<feBlend mode="normal" in2="BackgroundImageFix" result="effect1_dropShadow_1507_248"/>
<feBlend mode="normal" in="SourceGraphic" in2="effect1_dropShadow_1507_248" result="shape"/>
</filter>
<filter id="filter3_d_1507_248" x="-48" y="-200" width="830" height="830" filterUnits="userSpaceOnUse" color-interpolation-filters="sRGB">
<feFlood flood-opacity="0" result="BackgroundImageFix"/>
<feColorMatrix in="SourceAlpha" type="matrix" values="0 0 0 0 0 0 0 0 0 0 0 0 0 0 0 0 0 0 127 0" result="hardAlpha"/>
<feOffset/>
<feGaussianBlur stdDeviation="45"/>
<feComposite in2="hardAlpha" operator="out"/>
<feColorMatrix type="matrix" values="0 0 0 0 0 0 0 0 0 0 0 0 0 0 0 0 0 0 0.25 0"/>
<feBlend mode="normal" in2="BackgroundImageFix" result="effect1_dropShadow_1507_248"/>
<feBlend mode="normal" in="SourceGraphic" in2="effect1_dropShadow_1507_248" result="shape"/>
</filter>
<filter id="filter4_d_1507_248" x="2" y="-150" width="730" height="730" filterUnits="userSpaceOnUse" color-interpolation-filters="sRGB">
<feFlood flood-opacity="0" result="BackgroundImageFix"/>
<feColorMatrix in="SourceAlpha" type="matrix" values="0 0 0 0 0 0 0 0 0 0 0 0 0 0 0 0 0 0 127 0" result="hardAlpha"/>
<feOffset/>
<feGaussianBlur stdDeviation="45"/>
<feComposite in2="hardAlpha" operator="out"/>
<feColorMatrix type="matrix" values="0 0 0 0 0 0 0 0 0 0 0 0 0 0 0 0 0 0 0.25 0"/>
<feBlend mode="normal" in2="BackgroundImageFix" result="effect1_dropShadow_1507_248"/>
<feBlend mode="normal" in="SourceGraphic" in2="effect1_dropShadow_1507_248" result="shape"/>
</filter>
<filter id="filter5_d_1507_248" x="52" y="-100" width="630" height="630" filterUnits="userSpaceOnUse" color-interpolation-filters="sRGB">
<feFlood flood-opacity="0" result="BackgroundImageFix"/>
<feColorMatrix in="SourceAlpha" type="matrix" values="0 0 0 0 0 0 0 0 0 0 0 0 0 0 0 0 0 0 127 0" result="hardAlpha"/>
<feOffset/>
<feGaussianBlur stdDeviation="45"/>
<feComposite in2="hardAlpha" operator="out"/>
<feColorMatrix type="matrix" values="0 0 0 0 0 0 0 0 0 0 0 0 0 0 0 0 0 0 0.25 0"/>
<feBlend mode="normal" in2="BackgroundImageFix" result="effect1_dropShadow_1507_248"/>
<feBlend mode="normal" in="SourceGraphic" in2="effect1_dropShadow_1507_248" result="shape"/>
</filter>
<filter id="filter6_d_1507_248" x="102" y="-50" width="530" height="530" filterUnits="userSpaceOnUse" color-interpolation-filters="sRGB">
<feFlood flood-opacity="0" result="BackgroundImageFix"/>
<feColorMatrix in="SourceAlpha" type="matrix" values="0 0 0 0 0 0 0 0 0 0 0 0 0 0 0 0 0 0 127 0" result="hardAlpha"/>
<feOffset/>
<feGaussianBlur stdDeviation="45"/>
<feComposite in2="hardAlpha" operator="out"/>
<feColorMatrix type="matrix" values="0 0 0 0 0 0 0 0 0 0 0 0 0 0 0 0 0 0 0.25 0"/>
<feBlend mode="normal" in2="BackgroundImageFix" result="effect1_dropShadow_1507_248"/>
<feBlend mode="normal" in="SourceGraphic" in2="effect1_dropShadow_1507_248" result="shape"/>
</filter>
<filter id="filter7_d_1507_248" x="152" y="0" width="430" height="430" filterUnits="userSpaceOnUse" color-interpolation-filters="sRGB">
<feFlood flood-opacity="0" result="BackgroundImageFix"/>
<feColorMatrix in="SourceAlpha" type="matrix" values="0 0 0 0 0 0 0 0 0 0 0 0 0 0 0 0 0 0 127 0" result="hardAlpha"/>
<feOffset/>
<feGaussianBlur stdDeviation="45"/>
<feComposite in2="hardAlpha" operator="out"/>
<feColorMatrix type="matrix" values="0 0 0 0 0 0 0 0 0 0 0 0 0 0 0 0 0 0 0.25 0"/>
<feBlend mode="normal" in2="BackgroundImageFix" result="effect1_dropShadow_1507_248"/>
<feBlend mode="normal" in="SourceGraphic" in2="effect1_dropShadow_1507_248" result="shape"/>
</filter>
<filter id="filter8_d_1507_248" x="202" y="50" width="330" height="330" filterUnits="userSpaceOnUse" color-interpolation-filters="sRGB">
<feFlood flood-opacity="0" result="BackgroundImageFix"/>
<feColorMatrix in="SourceAlpha" type="matrix" values="0 0 0 0 0 0 0 0 0 0 0 0 0 0 0 0 0 0 127 0" result="hardAlpha"/>
<feOffset/>
<feGaussianBlur stdDeviation="45"/>
<feComposite in2="hardAlpha" operator="out"/>
<feColorMatrix type="matrix" values="0 0 0 0 0 0 0 0 0 0 0 0 0 0 0 0 0 0 0.25 0"/>
<feBlend mode="normal" in2="BackgroundImageFix" result="effect1_dropShadow_1507_248"/>
<feBlend mode="normal" in="SourceGraphic" in2="effect1_dropShadow_1507_248" result="shape"/>
</filter>
<filter id="filter9_d_1507_248" x="292" y="140" width="150" height="150" filterUnits="userSpaceOnUse" color-interpolation-filters="sRGB">
<feFlood flood-opacity="0" result="BackgroundImageFix"/>
<feColorMatrix in="SourceAlpha" type="matrix" values="0 0 0 0 0 0 0 0 0 0 0 0 0 0 0 0 0 0 127 0" result="hardAlpha"/>
<feOffset/>
<feGaussianBlur stdDeviation="25"/>
<feComposite in2="hardAlpha" operator="out"/>
<feColorMatrix type="matrix" values="0 0 0 0 0 0 0 0 0 0 0 0 0 0 0 0 0 0 0.55 0"/>
<feBlend mode="normal" in2="BackgroundImageFix" result="effect1_dropShadow_1507_248"/>
<feBlend mode="normal" in="SourceGraphic" in2="effect1_dropShadow_1507_248" result="shape"/>
</filter>
<filter id="filter10_d_1507_248" x="178.18" y="133.76" width="366.458" height="251.141" filterUnits="userSpaceOnUse" color-interpolation-filters="sRGB">
<feFlood flood-opacity="0" result="BackgroundImageFix"/>
<feColorMatrix in="SourceAlpha" type="matrix" values="0 0 0 0 0 0 0 0 0 0 0 0 0 0 0 0 0 0 127 0" result="hardAlpha"/>
<feOffset dx="-4" dy="4"/>
<feComposite in2="hardAlpha" operator="out"/>
<feColorMatrix type="matrix" values="0 0 0 0 0.167726 0 0 0 0 0.253343 0 0 0 0 0.167726 0 0 0 1 0"/>
<feBlend mode="normal" in2="BackgroundImageFix" result="effect1_dropShadow_1507_248"/>
<feBlend mode="normal" in="SourceGraphic" in2="effect1_dropShadow_1507_248" result="shape"/>
</filter>
<linearGradient id="paint0_linear_1507_248" x1="158.025" y1="413.415" x2="68.6375" y2="322.911" gradientUnits="userSpaceOnUse">
<stop stop-color="#19291A"/>
<stop offset="0.61" stop-color="#19291A" stop-opacity="0.39"/>
<stop offset="1" stop-color="#19291A" stop-opacity="0"/>
</linearGradient>
<linearGradient id="paint1_linear_1507_248" x1="571.441" y1="416.767" x2="711.108" y2="329.615" gradientUnits="userSpaceOnUse">
<stop stop-color="#19291A"/>
<stop offset="0.61" stop-color="#19291A" stop-opacity="0.39"/>
<stop offset="1" stop-color="#19291A" stop-opacity="0"/>
</linearGradient>
<clipPath id="clip0_1507_248">
<rect x="152" width="429" height="429" rx="5" fill="white"/>
</clipPath>
</defs>
</svg>
