<svg width="1012" height="108" viewBox="0 0 1012 108" fill="none" xmlns="http://www.w3.org/2000/svg">
<g filter="url(#filter0_d_1509_381)">
<path d="M996.927 75.6008L996.882 75.3758V19.6658C996.882 19.4558 996.822 19.2908 996.702 19.1708C996.612 19.0508 996.447 18.9758 996.207 18.9458H993.327C993.147 18.9458 993.012 18.9008 992.922 18.8108C992.862 18.7208 992.832 18.6158 992.832 18.4958C992.832 18.3758 992.877 18.2858 992.967 18.2258C993.057 18.1358 993.192 18.0608 993.372 18.0008L1005.84 14.4458C1006.2 14.3558 1006.45 14.2958 1006.6 14.2658C1006.78 14.2058 1006.95 14.1758 1007.1 14.1758C1007.34 14.1758 1007.52 14.2508 1007.64 14.4008C1007.76 14.5508 1007.82 14.7308 1007.82 14.9408V78.0758C1007.82 78.5258 1007.91 78.8858 1008.09 79.1558C1008.27 79.3958 1008.55 79.5608 1008.94 79.6508L1011.33 80.0558C1011.54 80.1158 1011.69 80.1908 1011.78 80.2808C1011.87 80.3408 1011.91 80.4308 1011.91 80.5508C1011.91 80.7008 1011.87 80.8208 1011.78 80.9108C1011.69 80.9708 1011.54 81.0008 1011.33 81.0008H998.502C998.022 81.0008 997.632 80.8658 997.332 80.5958C997.062 80.2958 996.927 79.8758 996.927 79.3358V75.6008ZM967.992 62.2808C967.992 57.7508 968.847 53.8508 970.557 50.5808C972.267 47.2808 974.547 44.7458 977.397 42.9758C980.277 41.2058 983.472 40.3208 986.982 40.3208C990.012 40.3208 992.517 40.9208 994.497 42.1208C996.477 43.2908 998.067 44.9558 999.267 47.1158L998.232 47.7008C997.362 45.9308 996.177 44.5508 994.677 43.5608C993.207 42.5708 991.482 42.0758 989.502 42.0758C987.552 42.0758 985.797 42.7058 984.237 43.9658C982.677 45.2258 981.432 47.2658 980.502 50.0858C979.572 52.8758 979.107 56.5958 979.107 61.2458C979.107 65.3858 979.497 68.7758 980.277 71.4158C981.087 74.0558 982.197 76.0208 983.607 77.3108C985.017 78.5708 986.652 79.2008 988.512 79.2008C990.042 79.2008 991.602 78.7658 993.192 77.8958C994.812 76.9958 996.327 75.5558 997.737 73.5758L998.412 74.3408C996.222 77.0408 994.062 78.9758 991.932 80.1458C989.802 81.3158 987.417 81.9008 984.777 81.9008C981.507 81.9008 978.612 81.1058 976.092 79.5158C973.572 77.9258 971.592 75.6608 970.152 72.7208C968.712 69.7808 967.992 66.3008 967.992 62.2808Z" fill="#EFE9D1"/>
</g>
<g filter="url(#filter1_d_1509_381)">
<path d="M943.344 40.3203C947.364 40.3203 950.919 41.2053 954.009 42.9753C957.099 44.7453 959.529 47.2053 961.299 50.3553C963.069 53.5053 963.954 57.1503 963.954 61.2903C963.954 65.3403 963.039 68.9103 961.209 72.0003C959.409 75.0903 956.919 77.5203 953.739 79.2903C950.559 81.0303 946.914 81.9003 942.804 81.9003C938.784 81.9003 935.229 81.0303 932.139 79.2903C929.049 77.5503 926.634 75.1353 924.894 72.0453C923.154 68.9253 922.284 65.3253 922.284 61.2453C922.284 57.1953 923.184 53.5953 924.984 50.4453C926.784 47.2953 929.259 44.8203 932.409 43.0203C935.589 41.2203 939.234 40.3203 943.344 40.3203ZM945.639 80.8203C947.499 80.6103 949.029 79.7103 950.229 78.1203C951.429 76.5003 952.224 74.1903 952.614 71.1903C953.034 68.1603 952.974 64.4703 952.434 60.1203C951.894 55.7703 951.069 52.1703 949.959 49.3203C948.849 46.4703 947.499 44.4003 945.909 43.1103C944.349 41.7903 942.594 41.2353 940.644 41.4453C938.724 41.6553 937.164 42.5853 935.964 44.2353C934.794 45.8553 934.029 48.1653 933.669 51.1653C933.309 54.1653 933.384 57.8253 933.894 62.1453C934.434 66.4053 935.259 69.9603 936.369 72.8103C937.509 75.6603 938.859 77.7603 940.419 79.1103C942.009 80.4303 943.749 81.0003 945.639 80.8203Z" fill="#EFE9D1"/>
</g>
<g filter="url(#filter2_d_1509_381)">
<path d="M919.098 41.67C919.098 45.72 918.153 49.245 916.263 52.245C914.403 55.215 911.793 57.525 908.433 59.175C905.103 60.795 901.233 61.605 896.823 61.605C893.523 61.605 890.643 61.23 888.183 60.48C885.723 59.73 883.488 58.62 881.478 57.15L881.658 56.205C883.038 57.135 884.358 57.885 885.618 58.455C886.878 59.025 888.123 59.43 889.353 59.67C890.583 59.88 891.813 59.985 893.043 59.985C895.623 59.985 897.933 59.265 899.973 57.825C902.013 56.355 903.633 54.24 904.833 51.48C906.063 48.69 906.678 45.33 906.678 41.4C906.678 36.66 905.928 32.64 904.428 29.34C902.958 26.01 900.918 23.49 898.308 21.78C895.728 20.04 892.788 19.17 889.488 19.17H885.663V78.075C885.663 78.435 885.798 78.735 886.068 78.975C886.368 79.185 886.803 79.35 887.373 79.47L891.243 80.055C891.423 80.085 891.558 80.145 891.648 80.235C891.768 80.295 891.828 80.4 891.828 80.55C891.828 80.67 891.768 80.775 891.648 80.865C891.558 80.955 891.408 81 891.198 81H867.618C867.408 81 867.243 80.955 867.123 80.865C867.033 80.775 866.988 80.655 866.988 80.505C866.988 80.295 867.183 80.145 867.573 80.055L871.353 79.425C871.893 79.335 872.298 79.185 872.568 78.975C872.838 78.735 872.973 78.45 872.973 78.12V21.06C872.973 20.67 872.838 20.355 872.568 20.115C872.328 19.845 871.938 19.665 871.398 19.575L867.483 18.945C867.153 18.885 866.988 18.735 866.988 18.495C866.988 18.315 867.033 18.195 867.123 18.135C867.213 18.045 867.378 18 867.618 18H889.533C895.443 18 900.618 18.99 905.058 20.97C909.498 22.95 912.948 25.725 915.408 29.295C917.868 32.835 919.098 36.96 919.098 41.67Z" fill="#EFE9D1"/>
</g>
<g filter="url(#filter3_d_1509_381)">
<path d="M832.285 79.0656C836.275 79.7856 839.365 80.6256 841.555 81.5856C843.775 82.5456 845.32 83.7156 846.19 85.0956C847.09 86.5056 847.54 88.1856 847.54 90.1356C847.54 93.9456 845.71 97.0506 842.05 99.4506C838.42 101.881 833.245 103.096 826.525 103.096C821.485 103.096 817.39 102.676 814.24 101.836C811.12 100.996 808.825 99.8256 807.355 98.3256C805.915 96.8556 805.195 95.1756 805.195 93.2856C805.195 90.7956 806.245 88.7556 808.345 87.1656C810.475 85.6056 814.03 84.5106 819.01 83.8806L819.145 84.4206C817.075 84.8106 815.5 85.5456 814.42 86.6256C813.34 87.7056 812.8 88.9356 812.8 90.3156C812.8 93.7956 813.97 96.6006 816.31 98.7306C818.68 100.861 822.295 101.926 827.155 101.926C829.765 101.926 831.925 101.656 833.635 101.116C835.345 100.576 836.62 99.7656 837.46 98.6856C838.33 97.6356 838.765 96.3156 838.765 94.7256C838.765 93.5256 838.42 92.4606 837.73 91.5306C837.04 90.6306 835.795 89.8056 833.995 89.0556C832.225 88.3356 829.705 87.6306 826.435 86.9406C822.685 86.1306 819.73 85.3356 817.57 84.5556C815.41 83.7756 813.88 82.8906 812.98 81.9006C812.08 80.9406 811.63 79.7256 811.63 78.2556C811.63 76.9656 811.975 75.7956 812.665 74.7456C813.355 73.6956 814.495 72.7956 816.085 72.0456C817.705 71.2956 819.865 70.7106 822.565 70.2906L822.655 70.6956C821.965 70.9056 821.38 71.2656 820.9 71.7756C820.45 72.2556 820.225 72.8256 820.225 73.4856C820.225 74.1456 820.495 74.7456 821.035 75.2856C821.605 75.7956 822.745 76.3506 824.455 76.9506C826.195 77.5506 828.805 78.2556 832.285 79.0656ZM832.915 42.7956L833.365 41.8056C834.535 39.2856 835.915 37.2606 837.505 35.7306C839.095 34.1706 841.015 33.3906 843.265 33.3906C845.215 33.3906 846.73 33.9456 847.81 35.0556C848.92 36.1656 849.475 37.5756 849.475 39.2856C849.475 40.7256 849.115 41.8656 848.395 42.7056C847.675 43.5156 846.625 43.9206 845.245 43.9206C844.345 43.9206 843.595 43.6656 842.995 43.1556C842.395 42.6156 841.84 42.0006 841.33 41.3106C840.85 40.6206 840.355 40.0206 839.845 39.5106C839.365 38.9706 838.78 38.7006 838.09 38.7006C837.22 38.7006 836.44 39.0606 835.75 39.7806C835.09 40.4706 834.43 41.4606 833.77 42.7506L832.915 42.7956ZM844.57 55.3956C844.57 58.4256 843.745 61.1406 842.095 63.5406C840.475 65.9106 838.24 67.7856 835.39 69.1656C832.57 70.5156 829.375 71.1906 825.805 71.1906C821.995 71.1906 818.68 70.5306 815.86 69.2106C813.04 67.8606 810.85 66.0756 809.29 63.8556C807.73 61.6056 806.95 59.1156 806.95 56.3856C806.95 53.3256 807.73 50.5806 809.29 48.1506C810.88 45.7206 813.115 43.8006 815.995 42.3906C818.905 40.9806 822.355 40.2756 826.345 40.2756C830.095 40.2756 833.335 40.9806 836.065 42.3906C838.795 43.7706 840.895 45.6006 842.365 47.8806C843.835 50.1606 844.57 52.6656 844.57 55.3956ZM824.005 41.4906C822.595 41.5806 821.38 42.2106 820.36 43.3806C819.37 44.5206 818.65 46.1256 818.2 48.1956C817.75 50.2656 817.66 52.6956 817.93 55.4856C818.2 58.4856 818.77 61.0806 819.64 63.2706C820.51 65.4306 821.605 67.0956 822.925 68.2656C824.245 69.4056 825.67 69.9306 827.2 69.8406C829.36 69.7206 831.01 68.4306 832.15 65.9706C833.32 63.4806 833.71 60.1206 833.32 55.8906C832.93 51.3306 831.88 47.7756 830.17 45.2256C828.46 42.6456 826.405 41.4006 824.005 41.4906Z" fill="#EFE9D1"/>
</g>
<g filter="url(#filter4_d_1509_381)">
<path d="M773.131 41.1303V78.0753C773.131 78.5253 773.221 78.8853 773.401 79.1553C773.581 79.3953 773.866 79.5603 774.256 79.6503L776.641 80.1003C777.001 80.1603 777.181 80.3103 777.181 80.5503C777.181 80.8503 776.986 81.0003 776.596 81.0003H758.551C758.401 81.0003 758.266 80.9703 758.146 80.9103C758.056 80.8203 758.011 80.7003 758.011 80.5503C758.011 80.4603 758.056 80.3853 758.146 80.3253C758.236 80.2353 758.371 80.1603 758.551 80.1003L761.071 79.6503C761.491 79.5603 761.776 79.3953 761.926 79.1553C762.106 78.8853 762.196 78.5403 762.196 78.1203V45.9003C762.196 45.6603 762.136 45.4803 762.016 45.3603C761.926 45.2403 761.761 45.1803 761.521 45.1803L758.641 45.1353C758.461 45.1353 758.326 45.0903 758.236 45.0003C758.176 44.9103 758.146 44.8203 758.146 44.7303C758.146 44.5803 758.191 44.4753 758.281 44.4153C758.371 44.3253 758.506 44.2503 758.686 44.1903L771.151 40.6803C771.511 40.5603 771.766 40.4853 771.916 40.4553C772.096 40.4253 772.261 40.4103 772.411 40.4103C772.651 40.4103 772.831 40.4853 772.951 40.6353C773.071 40.7553 773.131 40.9203 773.131 41.1303ZM772.186 50.1303L771.601 49.5003L773.221 48.0603C776.251 45.3303 778.876 43.3653 781.096 42.1653C783.316 40.9353 785.401 40.3203 787.351 40.3203C790.201 40.3203 792.406 41.2203 793.966 43.0203C795.556 44.7903 796.576 47.5203 797.026 51.2103L800.311 77.8503C800.371 78.3603 800.506 78.7803 800.716 79.1103C800.926 79.4403 801.256 79.6353 801.706 79.6953L803.866 80.1003C804.046 80.1303 804.181 80.1903 804.271 80.2803C804.361 80.3703 804.406 80.4603 804.406 80.5503C804.406 80.7003 804.346 80.8203 804.226 80.9103C804.136 80.9703 804.001 81.0003 803.821 81.0003H785.461C785.071 81.0003 784.876 80.8503 784.876 80.5503C784.876 80.3403 785.071 80.1903 785.461 80.1003L787.891 79.6503C788.401 79.5603 788.761 79.3653 788.971 79.0653C789.181 78.7353 789.241 78.3303 789.151 77.8503L786.271 52.3803C785.941 49.9203 785.356 48.1353 784.516 47.0253C783.676 45.8853 782.401 45.3153 780.691 45.3153C779.581 45.3153 778.456 45.6003 777.316 46.1703C776.206 46.7403 775.021 47.5953 773.761 48.7353L772.186 50.1303Z" fill="#EFE9D1"/>
</g>
<g filter="url(#filter5_d_1509_381)">
<path d="M751.117 41.1296V78.0746C751.117 78.5246 751.207 78.8846 751.387 79.1546C751.567 79.3946 751.852 79.5596 752.242 79.6496L754.672 80.0546C754.882 80.1146 755.017 80.1896 755.077 80.2796C755.167 80.3396 755.212 80.4296 755.212 80.5496C755.212 80.6996 755.167 80.8196 755.077 80.9096C754.987 80.9696 754.852 80.9996 754.672 80.9996H736.582C736.432 80.9996 736.297 80.9696 736.177 80.9096C736.087 80.8196 736.042 80.6996 736.042 80.5496C736.042 80.4596 736.072 80.3846 736.132 80.3246C736.222 80.2346 736.372 80.1596 736.582 80.0996L739.102 79.6496C739.492 79.5596 739.777 79.3946 739.957 79.1546C740.137 78.8846 740.227 78.5396 740.227 78.1196V45.8996C740.227 45.6596 740.167 45.4796 740.047 45.3596C739.957 45.2396 739.777 45.1796 739.507 45.1796L736.672 45.1346C736.492 45.1346 736.357 45.0896 736.267 44.9996C736.207 44.9096 736.177 44.8196 736.177 44.7296C736.177 44.5796 736.222 44.4746 736.312 44.4146C736.402 44.3246 736.522 44.2496 736.672 44.1896L749.182 40.6796C749.542 40.5596 749.797 40.4846 749.947 40.4546C750.097 40.4246 750.247 40.4096 750.397 40.4096C750.637 40.4096 750.817 40.4846 750.937 40.6346C751.057 40.7546 751.117 40.9196 751.117 41.1296ZM745.402 34.6046C743.452 34.6046 741.877 33.9896 740.677 32.7596C739.477 31.4996 738.877 29.9546 738.877 28.1246C738.877 26.2646 739.477 24.7196 740.677 23.4896C741.907 22.2296 743.482 21.5996 745.402 21.5996C747.352 21.5996 748.942 22.2296 750.172 23.4896C751.402 24.7496 752.017 26.2946 752.017 28.1246C752.017 29.9546 751.387 31.4996 750.127 32.7596C748.897 33.9896 747.322 34.6046 745.402 34.6046Z" fill="#EFE9D1"/>
</g>
<g filter="url(#filter6_d_1509_381)">
<path d="M711.239 42.9298L707.504 42.1648C707.294 42.1048 707.144 42.0448 707.054 41.9848C706.994 41.8948 706.964 41.7898 706.964 41.6698C706.964 41.5198 707.009 41.4148 707.099 41.3548C707.189 41.2648 707.294 41.2198 707.414 41.2198H711.284C711.524 41.2198 711.719 41.1898 711.869 41.1298C712.019 41.0398 712.184 40.8898 712.364 40.6798L720.689 32.2648C720.899 32.0848 721.094 31.9348 721.274 31.8148C721.484 31.6948 721.694 31.6348 721.904 31.6348C722.114 31.6348 722.279 31.7098 722.399 31.8598C722.519 31.9798 722.579 32.1748 722.579 32.4448V70.3798C722.579 72.7798 723.029 74.5798 723.929 75.7798C724.829 76.9498 726.074 77.5348 727.664 77.5348C728.294 77.5348 728.864 77.4448 729.374 77.2648C729.914 77.0548 730.394 76.7548 730.814 76.3648C731.264 75.9748 731.654 75.4948 731.984 74.9248C732.344 74.3248 732.659 73.6198 732.929 72.8098C733.019 72.6598 733.139 72.5998 733.289 72.6298C733.439 72.6598 733.484 72.7948 733.424 73.0348C732.974 74.9848 732.314 76.6048 731.444 77.8948C730.574 79.1848 729.434 80.1598 728.024 80.8198C726.644 81.4798 724.979 81.8098 723.029 81.8098C719.519 81.8098 716.804 80.9848 714.884 79.3348C712.964 77.6548 712.004 75.0748 712.004 71.5948V43.9648C712.004 43.6648 711.944 43.4398 711.824 43.2898C711.734 43.1098 711.539 42.9898 711.239 42.9298ZM719.114 42.4798L719.384 41.2198H732.929C733.109 41.2198 733.244 41.2648 733.334 41.3548C733.454 41.4148 733.514 41.5198 733.514 41.6698C733.514 41.8798 733.379 42.0748 733.109 42.2548C732.869 42.4048 732.509 42.4798 732.029 42.4798H719.114Z" fill="#EFE9D1"/>
</g>
<g filter="url(#filter7_d_1509_381)">
<path d="M704.776 57.4204C704.776 57.8104 704.656 58.1254 704.416 58.3654C704.176 58.5754 703.831 58.6804 703.381 58.6804H675.481V57.6454H692.986C693.586 57.6454 693.886 57.3304 693.886 56.7004C693.886 51.4804 693.166 47.6254 691.726 45.1354C690.316 42.6154 688.576 41.3554 686.506 41.3554C684.796 41.3554 683.311 41.9404 682.051 43.1104C680.821 44.2504 679.861 46.0054 679.171 48.3754C678.481 50.7154 678.136 53.6704 678.136 57.2404C678.136 63.3904 679.426 68.0104 682.006 71.1004C684.616 74.1604 688.036 75.6904 692.266 75.6904C695.326 75.6904 697.906 74.8654 700.006 73.2154C702.136 71.5354 703.381 69.2704 703.741 66.4204C703.801 66.2704 703.861 66.1654 703.921 66.1054C704.011 66.0454 704.086 66.0154 704.146 66.0154C704.266 66.0154 704.356 66.0604 704.416 66.1504C704.506 66.2404 704.551 66.3904 704.551 66.6004C704.371 69.5104 703.501 72.1204 701.941 74.4304C700.381 76.7404 698.311 78.5704 695.731 79.9204C693.181 81.2404 690.301 81.9004 687.091 81.9004C683.341 81.9004 680.026 81.0754 677.146 79.4254C674.296 77.7754 672.061 75.4504 670.441 72.4504C668.821 69.4204 668.011 65.9104 668.011 61.9204C668.011 57.6304 668.821 53.8654 670.441 50.6254C672.091 47.3554 674.401 44.8204 677.371 43.0204C680.341 41.1904 683.836 40.2754 687.856 40.2754C691.306 40.2754 694.291 41.0254 696.811 42.5254C699.331 43.9954 701.281 46.0204 702.661 48.6004C704.071 51.1804 704.776 54.1204 704.776 57.4204Z" fill="#EFE9D1"/>
</g>
<g filter="url(#filter8_d_1509_381)">
<path d="M621.969 81.0008C621.819 81.0008 621.684 80.9708 621.564 80.9108C621.474 80.8208 621.429 80.7008 621.429 80.5508C621.429 80.4608 621.474 80.3708 621.564 80.2808C621.684 80.1608 621.864 80.0858 622.104 80.0558L624.489 79.6508C624.909 79.5608 625.194 79.3958 625.344 79.1558C625.524 78.8858 625.614 78.5408 625.614 78.1208V19.6658C625.614 19.4558 625.554 19.2908 625.434 19.1708C625.344 19.0508 625.179 18.9758 624.939 18.9458H622.059C621.879 18.9458 621.744 18.9008 621.654 18.8108C621.594 18.7208 621.564 18.6158 621.564 18.4958C621.564 18.3758 621.609 18.2858 621.699 18.2258C621.789 18.1358 621.924 18.0608 622.104 18.0008L634.569 14.4458C634.929 14.3558 635.184 14.2958 635.334 14.2658C635.514 14.2058 635.679 14.1758 635.829 14.1758C636.069 14.1758 636.249 14.2508 636.369 14.4008C636.489 14.5508 636.549 14.7308 636.549 14.9408V78.0758C636.549 78.5258 636.639 78.8858 636.819 79.1558C636.999 79.3958 637.284 79.5608 637.674 79.6508L640.059 80.1008C640.419 80.1608 640.599 80.3108 640.599 80.5508C640.599 80.8508 640.404 81.0008 640.014 81.0008H621.969ZM634.659 65.5658L652.074 48.2858C653.394 46.9658 653.889 45.7508 653.559 44.6408C653.259 43.5308 652.284 42.8108 650.634 42.4808L648.879 42.1658C648.669 42.1058 648.519 42.0458 648.429 41.9858C648.339 41.8958 648.294 41.7908 648.294 41.6708C648.294 41.5208 648.354 41.4158 648.474 41.3558C648.594 41.2658 648.744 41.2208 648.924 41.2208H664.899C665.139 41.2208 665.304 41.2658 665.394 41.3558C665.484 41.4158 665.529 41.5208 665.529 41.6708C665.529 41.7908 665.469 41.8958 665.349 41.9858C665.259 42.0758 665.064 42.1508 664.764 42.2108C662.634 42.6608 660.624 43.3958 658.734 44.4158C656.844 45.4358 655.029 46.8308 653.289 48.6008L635.244 66.4208L634.659 65.5658ZM648.339 52.6058L663.009 77.5808C663.459 78.3608 663.924 78.9158 664.404 79.2458C664.914 79.5758 665.544 79.8458 666.294 80.0558C666.564 80.1758 666.729 80.2808 666.789 80.3708C666.879 80.4308 666.924 80.5208 666.924 80.6408C666.924 80.7308 666.879 80.8208 666.789 80.9108C666.699 80.9708 666.564 81.0008 666.384 81.0008H646.989C646.839 81.0008 646.704 80.9708 646.584 80.9108C646.494 80.8208 646.449 80.7008 646.449 80.5508C646.449 80.4608 646.494 80.3708 646.584 80.2808C646.704 80.1908 646.854 80.1308 647.034 80.1008L648.969 79.7858C649.689 79.6658 650.139 79.4108 650.319 79.0208C650.499 78.6308 650.394 78.1058 650.004 77.4458L640.599 60.4808L648.339 52.6058Z" fill="#EFE9D1"/>
</g>
<g filter="url(#filter9_d_1509_381)">
<path d="M600.192 58.4103C600.192 54.4203 600.762 51.0903 601.902 48.4203C603.042 45.7203 604.512 43.6953 606.312 42.3453C608.142 40.9953 610.032 40.3203 611.982 40.3203C614.262 40.3203 616.017 41.0253 617.247 42.4353C618.507 43.8453 619.137 45.8553 619.137 48.4653C619.137 50.7453 618.612 52.4403 617.562 53.5503C616.512 54.6603 615.192 55.2153 613.602 55.2153C612.102 55.2153 610.977 54.8103 610.227 54.0003C609.507 53.1603 609.117 51.9453 609.057 50.3553L609.012 48.9153C608.982 47.9853 608.787 47.2803 608.427 46.8003C608.067 46.3203 607.437 46.0803 606.537 46.0803C605.577 46.0803 604.662 46.5453 603.792 47.4753C602.922 48.3753 602.202 49.7553 601.632 51.6153C601.092 53.4753 600.822 55.8153 600.822 58.6353L600.192 58.4103ZM600.732 41.4453L600.822 55.9353V77.8503C600.822 78.2403 600.927 78.5703 601.137 78.8403C601.347 79.1103 601.647 79.2903 602.037 79.3803L606.447 80.1003C606.657 80.1303 606.807 80.1903 606.897 80.2803C606.987 80.3403 607.032 80.4303 607.032 80.5503C607.032 80.7003 606.972 80.8203 606.852 80.9103C606.762 80.9703 606.612 81.0003 606.402 81.0003H586.332C586.152 81.0003 586.002 80.9553 585.882 80.8653C585.762 80.7753 585.702 80.6703 585.702 80.5503C585.702 80.4303 585.762 80.3253 585.882 80.2353C586.002 80.1453 586.167 80.0853 586.377 80.0553L588.762 79.6503C589.182 79.5603 589.467 79.3953 589.617 79.1553C589.797 78.9153 589.887 78.6153 589.887 78.2553V45.7653C589.887 45.4953 589.842 45.3003 589.752 45.1803C589.662 45.0303 589.482 44.9403 589.212 44.9103H586.242C586.122 44.9103 586.017 44.8653 585.927 44.7753C585.837 44.6853 585.792 44.5953 585.792 44.5053C585.792 44.3853 585.837 44.2803 585.927 44.1903C586.017 44.1003 586.167 44.0253 586.377 43.9653L598.842 40.9053C599.202 40.7853 599.457 40.7103 599.607 40.6803C599.787 40.6503 599.952 40.6353 600.102 40.6353C600.312 40.6353 600.462 40.7103 600.552 40.8603C600.672 41.0103 600.732 41.2053 600.732 41.4453Z" fill="#EFE9D1"/>
</g>
<g filter="url(#filter10_d_1509_381)">
<path d="M567.807 76.6804V76.2304L567.267 76.6354V47.8354C567.267 45.6754 566.817 44.0254 565.917 42.8854C565.017 41.7454 563.712 41.1754 562.002 41.1754C560.142 41.1754 558.747 41.6404 557.817 42.5704C556.887 43.4704 556.422 44.5054 556.422 45.6754V49.3654C556.422 50.8954 555.882 52.1704 554.802 53.1904C553.752 54.2104 552.372 54.7204 550.662 54.7204C549.432 54.7204 548.427 54.3604 547.647 53.6404C546.867 52.8904 546.477 51.7954 546.477 50.3554C546.477 48.7654 547.107 47.2054 548.367 45.6754C549.657 44.1154 551.562 42.8254 554.082 41.8054C556.602 40.7854 559.707 40.2754 563.397 40.2754C568.377 40.2754 572.097 41.3254 574.557 43.4254C577.017 45.4954 578.247 48.4204 578.247 52.2004V75.5104C578.247 76.5604 578.427 77.3254 578.787 77.8054C579.147 78.2554 579.612 78.4804 580.182 78.4804C580.722 78.4804 581.187 78.3154 581.577 77.9854C581.997 77.6554 582.267 77.1304 582.387 76.4104C582.417 76.2904 582.462 76.2154 582.522 76.1854C582.582 76.1254 582.642 76.0954 582.702 76.0954C582.822 76.0954 582.897 76.1254 582.927 76.1854C582.987 76.2454 583.017 76.3354 583.017 76.4554C583.017 77.0554 582.747 77.7754 582.207 78.6154C581.667 79.4554 580.797 80.2054 579.597 80.8654C578.427 81.5254 576.852 81.8554 574.872 81.8554C572.442 81.8554 570.657 81.3754 569.517 80.4154C568.377 79.4554 567.807 78.2104 567.807 76.6804ZM544.227 72.1804C544.227 68.8804 545.607 66.2254 548.367 64.2154C551.127 62.2054 555.447 61.2004 561.327 61.2004C563.187 61.2004 564.717 61.3804 565.917 61.7404C567.147 62.1004 568.272 62.5504 569.292 63.0904L568.887 63.6304C567.867 63.1504 566.832 62.7754 565.782 62.5054C564.732 62.2354 563.547 62.1004 562.227 62.1004C559.947 62.1004 558.192 62.8504 556.962 64.3504C555.762 65.8204 555.162 67.8904 555.162 70.5604C555.162 73.1704 555.747 75.1654 556.917 76.5454C558.087 77.8954 559.602 78.5704 561.462 78.5704C562.722 78.5704 563.967 78.2704 565.197 77.6704C566.457 77.0404 567.507 76.1704 568.347 75.0604L568.887 75.5554C567.537 77.5954 565.692 79.1554 563.352 80.2354C561.012 81.3154 558.507 81.8554 555.837 81.8554C552.387 81.8554 549.582 80.9554 547.422 79.1554C545.292 77.3554 544.227 75.0304 544.227 72.1804Z" fill="#EFE9D1"/>
</g>
<g filter="url(#filter11_d_1509_381)">
<path d="M506.627 58.14L505.322 59.76L519.992 19.665C520.232 18.975 520.472 18.525 520.712 18.315C520.952 18.105 521.297 18 521.747 18H536.687C536.867 18 537.002 18.045 537.092 18.135C537.212 18.225 537.272 18.33 537.272 18.45C537.272 18.57 537.227 18.675 537.137 18.765C537.047 18.855 536.882 18.915 536.642 18.945L532.952 19.575C532.382 19.665 531.962 19.92 531.692 20.34C531.452 20.76 531.362 21.315 531.422 22.005L535.382 77.355C535.442 78.105 535.562 78.615 535.742 78.885C535.952 79.155 536.387 79.35 537.047 79.47L540.512 80.055C540.752 80.085 540.917 80.145 541.007 80.235C541.097 80.295 541.142 80.4 541.142 80.55C541.142 80.67 541.082 80.775 540.962 80.865C540.872 80.955 540.722 81 540.512 81H517.382C517.172 81 517.007 80.955 516.887 80.865C516.767 80.775 516.707 80.67 516.707 80.55C516.707 80.4 516.752 80.295 516.842 80.235C516.962 80.145 517.142 80.085 517.382 80.055L520.847 79.47C521.537 79.35 522.002 79.14 522.242 78.84C522.512 78.51 522.632 78 522.602 77.31L518.822 24.3L519.857 23.715L501.767 74.79C501.587 75.36 501.407 75.735 501.227 75.915C501.047 76.065 500.867 76.14 500.687 76.14C500.537 76.14 500.402 76.11 500.282 76.05C500.162 75.96 500.042 75.825 499.922 75.645C499.802 75.435 499.667 75.15 499.517 74.79L479.807 24.615L480.752 23.4L477.107 74.205C477.017 75.465 477.392 76.53 478.232 77.4C479.072 78.27 480.212 78.915 481.652 79.335L485.252 80.055C485.432 80.115 485.567 80.175 485.657 80.235C485.747 80.295 485.792 80.4 485.792 80.55C485.792 80.67 485.747 80.775 485.657 80.865C485.567 80.955 485.417 81 485.207 81H468.467C468.257 81 468.107 80.955 468.017 80.865C467.897 80.775 467.837 80.67 467.837 80.55C467.837 80.4 467.912 80.295 468.062 80.235C468.182 80.145 468.317 80.07 468.467 80.01L471.077 79.38C472.367 78.99 473.447 78.36 474.317 77.49C475.217 76.59 475.712 75.45 475.802 74.07L479.357 25.335C479.507 23.535 479.462 22.17 479.222 21.24C478.982 20.28 478.457 19.725 477.647 19.575L474.497 19.125C474.137 19.035 473.867 18.96 473.687 18.9C473.537 18.81 473.462 18.69 473.462 18.54C473.462 18.18 473.747 18 474.317 18H489.527C489.917 18 490.232 18.105 490.472 18.315C490.742 18.495 490.982 18.87 491.192 19.44L506.627 58.14Z" fill="#EFE9D1"/>
</g>
<g filter="url(#filter12_d_1509_381)">
<path d="M408.59 56.61H431.855L431.99 57.825H408.365L408.59 56.61ZM411.29 80.55C411.29 80.67 411.245 80.775 411.155 80.865C411.065 80.955 410.915 81 410.705 81H396.395C396.215 81 396.08 80.955 395.99 80.865C395.87 80.775 395.81 80.67 395.81 80.55C395.81 80.4 395.87 80.295 395.99 80.235C396.08 80.145 396.2 80.085 396.35 80.055L398.015 79.515C398.975 79.185 399.92 78.51 400.85 77.49C401.78 76.47 402.56 74.88 403.19 72.72L417.725 23.715C418.085 22.545 418.1 21.615 417.77 20.925C417.47 20.205 416.855 19.65 415.925 19.26C415.535 19.02 415.25 18.855 415.07 18.765C414.89 18.675 414.8 18.57 414.8 18.45C414.8 18.3 414.845 18.195 414.935 18.135C415.055 18.045 415.22 18 415.43 18H433.34C433.55 18 433.7 18.045 433.79 18.135C433.88 18.195 433.925 18.3 433.925 18.45C433.925 18.57 433.85 18.69 433.7 18.81C433.55 18.93 433.265 19.065 432.845 19.215C432.125 19.335 431.69 19.545 431.54 19.845C431.39 20.145 431.45 20.7 431.72 21.51L449.585 77.445C449.825 78.225 450.185 78.81 450.665 79.2C451.145 79.59 451.745 79.845 452.465 79.965C452.705 80.025 452.87 80.1 452.96 80.19C453.05 80.28 453.095 80.4 453.095 80.55C453.095 80.67 453.05 80.775 452.96 80.865C452.87 80.955 452.72 81 452.51 81H432.62C432.44 81 432.29 80.955 432.17 80.865C432.08 80.775 432.035 80.67 432.035 80.55C432.035 80.4 432.08 80.295 432.17 80.235C432.29 80.175 432.47 80.115 432.71 80.055L434.87 79.695C435.62 79.515 436.07 79.215 436.22 78.795C436.37 78.375 436.325 77.775 436.085 76.995L418.895 22.815L420.02 20.565L404.495 72.81C404.135 74.04 404.105 75.105 404.405 76.005C404.735 76.875 405.305 77.61 406.115 78.21C406.955 78.81 407.975 79.29 409.175 79.65L410.705 80.055C410.915 80.115 411.065 80.175 411.155 80.235C411.245 80.295 411.29 80.4 411.29 80.55Z" fill="#EFE9D1"/>
</g>
<g filter="url(#filter13_d_1509_381)">
<path d="M397.028 41.67C397.028 45.72 396.083 49.245 394.193 52.245C392.333 55.215 389.723 57.525 386.363 59.175C383.033 60.795 379.163 61.605 374.753 61.605C371.453 61.605 368.573 61.23 366.113 60.48C363.653 59.73 361.418 58.62 359.408 57.15L359.588 56.205C360.968 57.135 362.288 57.885 363.548 58.455C364.808 59.025 366.053 59.43 367.283 59.67C368.513 59.88 369.743 59.985 370.973 59.985C373.553 59.985 375.863 59.265 377.903 57.825C379.943 56.355 381.563 54.24 382.763 51.48C383.993 48.69 384.608 45.33 384.608 41.4C384.608 36.66 383.858 32.64 382.358 29.34C380.888 26.01 378.848 23.49 376.238 21.78C373.658 20.04 370.718 19.17 367.418 19.17H363.593V78.075C363.593 78.435 363.728 78.735 363.998 78.975C364.298 79.185 364.733 79.35 365.303 79.47L369.173 80.055C369.353 80.085 369.488 80.145 369.578 80.235C369.698 80.295 369.758 80.4 369.758 80.55C369.758 80.67 369.698 80.775 369.578 80.865C369.488 80.955 369.338 81 369.128 81H345.548C345.338 81 345.173 80.955 345.053 80.865C344.963 80.775 344.918 80.655 344.918 80.505C344.918 80.295 345.113 80.145 345.503 80.055L349.283 79.425C349.823 79.335 350.228 79.185 350.498 78.975C350.768 78.735 350.903 78.45 350.903 78.12V21.06C350.903 20.67 350.768 20.355 350.498 20.115C350.258 19.845 349.868 19.665 349.328 19.575L345.413 18.945C345.083 18.885 344.918 18.735 344.918 18.495C344.918 18.315 344.963 18.195 345.053 18.135C345.143 18.045 345.308 18 345.548 18H367.463C373.373 18 378.548 18.99 382.988 20.97C387.428 22.95 390.878 25.725 393.338 29.295C395.798 32.835 397.028 36.96 397.028 41.67Z" fill="#EFE9D1"/>
</g>
<g filter="url(#filter14_d_1509_381)">
<path d="M339.607 62.6402C339.337 65.4002 338.557 67.9802 337.267 70.3802C336.007 72.7502 334.312 74.8352 332.182 76.6352C330.082 78.4352 327.607 79.8452 324.757 80.8652C321.937 81.8852 318.847 82.3952 315.487 82.3952C309.457 82.3952 304.237 81.0602 299.827 78.3902C295.447 75.6902 292.057 71.9402 289.657 67.1402C287.287 62.3102 286.102 56.7152 286.102 50.3552C286.102 45.4052 286.822 40.8902 288.262 36.8102C289.732 32.7002 291.802 29.1602 294.472 26.1902C297.142 23.1902 300.307 20.8802 303.967 19.2602C307.657 17.6102 311.707 16.7852 316.117 16.7852C319.027 16.7852 321.442 17.1002 323.362 17.7302C325.312 18.3602 326.812 19.0052 327.862 19.6652C328.942 20.2952 329.617 20.6102 329.887 20.6102C330.277 20.6102 330.802 20.2952 331.462 19.6652C332.122 19.0352 332.752 18.4202 333.352 17.8202C333.982 17.1902 334.402 16.8752 334.612 16.8752C334.762 16.8752 334.897 16.9352 335.017 17.0552C335.137 17.1452 335.227 17.3552 335.287 17.6852L339.742 35.1902C339.832 35.4602 339.832 35.7002 339.742 35.9102C339.682 36.0902 339.547 36.1952 339.337 36.2252C339.097 36.2852 338.887 36.2552 338.707 36.1352C338.557 36.0152 338.407 35.8052 338.257 35.5052C336.637 31.3352 334.807 28.0052 332.767 25.5152C330.727 22.9952 328.522 21.1802 326.152 20.0702C323.812 18.9302 321.352 18.3602 318.772 18.3602C316.042 18.3602 313.522 18.9752 311.212 20.2052C308.932 21.4352 306.922 23.2352 305.182 25.6052C303.442 27.9452 302.092 30.8402 301.132 34.2902C300.202 37.7102 299.737 41.6252 299.737 46.0352C299.737 52.9052 300.652 58.6352 302.482 63.2252C304.342 67.8152 306.907 71.2802 310.177 73.6202C313.477 75.9302 317.257 77.0852 321.517 77.0852C325.957 77.0852 329.677 75.8102 332.677 73.2602C335.707 70.6802 337.732 67.0952 338.752 62.5052C338.842 62.3252 338.917 62.1902 338.977 62.1002C339.067 62.0102 339.172 61.9802 339.292 62.0102C339.412 62.0102 339.502 62.0702 339.562 62.1902C339.622 62.3102 339.637 62.4602 339.607 62.6402Z" fill="#EFE9D1"/>
</g>
<g filter="url(#filter15_d_1509_381)">
<path d="M267.08 57.4204C267.08 57.8104 266.96 58.1254 266.72 58.3654C266.48 58.5754 266.135 58.6804 265.685 58.6804H237.785V57.6454H255.29C255.89 57.6454 256.19 57.3304 256.19 56.7004C256.19 51.4804 255.47 47.6254 254.03 45.1354C252.62 42.6154 250.88 41.3554 248.81 41.3554C247.1 41.3554 245.615 41.9404 244.355 43.1104C243.125 44.2504 242.165 46.0054 241.475 48.3754C240.785 50.7154 240.44 53.6704 240.44 57.2404C240.44 63.3904 241.73 68.0104 244.31 71.1004C246.92 74.1604 250.34 75.6904 254.57 75.6904C257.63 75.6904 260.21 74.8654 262.31 73.2154C264.44 71.5354 265.685 69.2704 266.045 66.4204C266.105 66.2704 266.165 66.1654 266.225 66.1054C266.315 66.0454 266.39 66.0154 266.45 66.0154C266.57 66.0154 266.66 66.0604 266.72 66.1504C266.81 66.2404 266.855 66.3904 266.855 66.6004C266.675 69.5104 265.805 72.1204 264.245 74.4304C262.685 76.7404 260.615 78.5704 258.035 79.9204C255.485 81.2404 252.605 81.9004 249.395 81.9004C245.645 81.9004 242.33 81.0754 239.45 79.4254C236.6 77.7754 234.365 75.4504 232.745 72.4504C231.125 69.4204 230.315 65.9104 230.315 61.9204C230.315 57.6304 231.125 53.8654 232.745 50.6254C234.395 47.3554 236.705 44.8204 239.675 43.0204C242.645 41.1904 246.14 40.2754 250.16 40.2754C253.61 40.2754 256.595 41.0254 259.115 42.5254C261.635 43.9954 263.585 46.0204 264.965 48.6004C266.375 51.1804 267.08 54.1204 267.08 57.4204Z" fill="#EFE9D1"/>
</g>
<g filter="url(#filter16_d_1509_381)">
<path d="M197.887 14.9408V78.0758C197.887 78.5258 197.977 78.8858 198.157 79.1558C198.337 79.3958 198.622 79.5608 199.012 79.6508L201.397 80.1008C201.757 80.1608 201.937 80.3108 201.937 80.5508C201.937 80.8508 201.742 81.0008 201.352 81.0008H183.307C183.157 81.0008 183.022 80.9708 182.902 80.9108C182.812 80.8208 182.767 80.7008 182.767 80.5508C182.767 80.4608 182.812 80.3708 182.902 80.2808C183.022 80.1608 183.202 80.0858 183.442 80.0558L185.827 79.6508C186.247 79.5608 186.532 79.3958 186.682 79.1558C186.862 78.8858 186.952 78.5408 186.952 78.1208V19.6658C186.952 19.4558 186.892 19.2908 186.772 19.1708C186.682 19.0508 186.517 18.9758 186.277 18.9458H183.397C183.217 18.9458 183.082 18.9008 182.992 18.8108C182.932 18.7208 182.902 18.6158 182.902 18.4958C182.902 18.3758 182.947 18.2858 183.037 18.2258C183.127 18.1358 183.262 18.0608 183.442 18.0008L195.907 14.4458C196.267 14.3558 196.522 14.2958 196.672 14.2658C196.852 14.2058 197.017 14.1758 197.167 14.1758C197.407 14.1758 197.587 14.2508 197.707 14.4008C197.827 14.5508 197.887 14.7308 197.887 14.9408ZM196.942 50.1308L196.357 49.5008L197.977 48.0608C201.007 45.3308 203.632 43.3658 205.852 42.1658C208.072 40.9358 210.157 40.3208 212.107 40.3208C214.957 40.3208 217.162 41.2208 218.722 43.0208C220.312 44.7908 221.332 47.5208 221.782 51.2108L225.067 77.8508C225.127 78.3608 225.262 78.7808 225.472 79.1108C225.682 79.4408 226.012 79.6358 226.462 79.6958L228.622 80.1008C228.802 80.1308 228.937 80.1908 229.027 80.2808C229.117 80.3708 229.162 80.4608 229.162 80.5508C229.162 80.7008 229.102 80.8208 228.982 80.9108C228.892 80.9708 228.757 81.0008 228.577 81.0008H210.217C209.827 81.0008 209.632 80.8508 209.632 80.5508C209.632 80.3408 209.827 80.1908 210.217 80.1008L212.647 79.6508C213.157 79.5608 213.517 79.3658 213.727 79.0658C213.937 78.7358 213.997 78.3308 213.907 77.8508L211.027 52.3808C210.697 49.9208 210.112 48.1358 209.272 47.0258C208.432 45.8858 207.157 45.3158 205.447 45.3158C204.337 45.3158 203.212 45.6008 202.072 46.1708C200.962 46.7408 199.777 47.5958 198.517 48.7358L196.942 50.1308Z" fill="#EFE9D1"/>
</g>
<g filter="url(#filter17_d_1509_381)">
<path d="M133.32 18.0002H171.975C172.635 18.0002 173.235 17.8952 173.775 17.6852C174.345 17.4752 174.84 17.2652 175.26 17.0552C175.68 16.8452 175.98 16.7402 176.16 16.7402C176.31 16.7402 176.43 16.8152 176.52 16.9652C176.64 17.0852 176.745 17.4002 176.835 17.9102L179.67 34.9202C179.76 35.1902 179.775 35.4002 179.715 35.5502C179.655 35.7002 179.55 35.7902 179.4 35.8202C179.25 35.8502 179.115 35.8352 178.995 35.7752C178.875 35.6852 178.755 35.5502 178.635 35.3702C176.715 30.7502 174.96 27.2852 173.37 24.9752C171.81 22.6652 170.31 21.1202 168.87 20.3402C167.46 19.5602 166.035 19.1702 164.595 19.1702H159.15V78.1202C159.15 78.5102 159.3 78.8102 159.6 79.0202C159.9 79.2302 160.35 79.3802 160.95 79.4702L164.505 80.0552C164.925 80.1152 165.135 80.2802 165.135 80.5502C165.135 80.8502 164.925 81.0002 164.505 81.0002H141.105C140.865 81.0002 140.685 80.9552 140.565 80.8652C140.475 80.7752 140.43 80.6702 140.43 80.5502C140.43 80.2802 140.655 80.1152 141.105 80.0552L144.66 79.4702C145.26 79.3802 145.71 79.2302 146.01 79.0202C146.31 78.8102 146.46 78.5102 146.46 78.1202V19.1702H141.015C139.605 19.1702 138.195 19.6052 136.785 20.4752C135.375 21.3452 133.875 22.9502 132.285 25.2902C130.695 27.6002 128.925 30.9602 126.975 35.3702C126.885 35.5502 126.765 35.6852 126.615 35.7752C126.495 35.8352 126.36 35.8502 126.21 35.8202C126.06 35.7902 125.955 35.7002 125.895 35.5502C125.865 35.4002 125.865 35.1902 125.895 34.9202L128.775 17.9102C128.865 17.4002 128.955 17.0852 129.045 16.9652C129.165 16.8152 129.3 16.7402 129.45 16.7402C129.63 16.7402 129.885 16.8452 130.215 17.0552C130.575 17.2652 131.01 17.4752 131.52 17.6852C132.06 17.8952 132.66 18.0002 133.32 18.0002Z" fill="#EFE9D1"/>
</g>
<path d="M42.5143 3.15714C42.5143 1.68964 43.7039 0.5 45.1714 0.5H47.8286C49.2961 0.5 50.4857 1.68964 50.4857 3.15714V13.6014C50.4857 16.509 54.4851 17.3045 55.5977 14.6183L59.5949 4.9682C60.1565 3.61241 61.7109 2.96858 63.0666 3.53016L65.5215 4.54701C66.8773 5.1086 67.5212 6.66294 66.9596 8.01873L62.961 17.6722C61.8483 20.3584 65.2388 22.6239 67.2947 20.5679L74.6826 13.18C75.7203 12.1423 77.4027 12.1423 78.4404 13.18L80.3193 15.0589C81.357 16.0966 81.357 17.779 80.3193 18.8167L72.9347 26.2012C70.8788 28.2572 73.1442 31.6477 75.8305 30.535L85.479 26.5384C86.8348 25.9768 88.3892 26.6207 88.9507 27.9765L89.9676 30.4313C90.5292 31.7871 89.8853 33.3415 88.5296 33.9031L78.8746 37.9023C76.1884 39.0149 76.9839 43.0143 79.8915 43.0143H90.3429C91.8104 43.0143 93 44.2039 93 45.6714V48.3286C93 49.7961 91.8104 50.9857 90.3429 50.9857L2.65714 50.9857C1.18964 50.9857 0 49.7961 0 48.3286V45.6714C0 44.2039 1.18964 43.0143 2.65714 43.0143H13.1059C16.0134 43.0143 16.8089 39.0149 14.1227 37.9023L4.46853 33.9034C3.11273 33.3418 2.4689 31.7874 3.03049 30.4316L4.04733 27.9768C4.60892 26.621 6.16326 25.9771 7.51906 26.5387L17.169 30.5359C19.8553 31.6485 22.1207 28.2581 20.0648 26.2021L12.68 18.8174C11.6423 17.7797 11.6423 16.0973 12.68 15.0596L14.5589 13.1807C15.5966 12.143 17.279 12.143 18.3167 13.1807L25.703 20.567C27.7589 22.623 31.1494 20.3575 30.0367 17.6713L26.0387 8.01927C25.4772 6.66348 26.121 5.10913 27.4768 4.54755L29.9317 3.5307C31.2875 2.96911 32.8418 3.61295 33.4034 4.96874L37.4023 14.6229C38.5149 17.3091 42.5143 16.5136 42.5143 13.606V3.15714Z" fill="#FFD600"/>
<path d="M4.57036 57.6286C2.85844 57.6286 1.59102 59.2259 2.10067 60.8602C2.43167 61.9216 2.79969 62.9667 3.2032 63.994C3.58934 64.977 4.55179 65.6 5.60794 65.6H87.392C88.4482 65.6 89.4106 64.977 89.7968 63.994C90.2003 62.9667 90.5683 61.9216 90.8993 60.8602C91.409 59.2259 90.1416 57.6286 88.4296 57.6286H4.57036Z" fill="#FFD600"/>
<path d="M12.328 72.2429C10.2218 72.2429 8.98414 74.5593 10.3076 76.1978C11.2183 77.3252 12.1805 78.4091 13.1908 79.4461C13.676 79.9442 14.3462 80.2143 15.0416 80.2143H77.9584C78.6538 80.2143 79.324 79.9442 79.8092 79.4461C80.8195 78.4091 81.7817 77.3252 82.6923 76.1978C84.0159 74.5593 82.7782 72.2429 80.672 72.2429H12.328Z" fill="#FFD600"/>
<path d="M46.5 93.5C51.871 93.5 57.0293 92.5894 61.829 90.9141C64.3709 90.0269 63.5988 86.8571 60.9065 86.8571H32.0935C29.4012 86.8571 28.6291 90.0269 31.171 90.9141C35.9707 92.5894 41.129 93.5 46.5 93.5Z" fill="#FFD600"/>
<defs>
<filter id="filter0_d_1509_381" x="963.992" y="14.1758" width="47.9199" height="71.7246" filterUnits="userSpaceOnUse" color-interpolation-filters="sRGB">
<feFlood flood-opacity="0" result="BackgroundImageFix"/>
<feColorMatrix in="SourceAlpha" type="matrix" values="0 0 0 0 0 0 0 0 0 0 0 0 0 0 0 0 0 0 127 0" result="hardAlpha"/>
<feOffset dx="-4" dy="4"/>
<feComposite in2="hardAlpha" operator="out"/>
<feColorMatrix type="matrix" values="0 0 0 0 0.167726 0 0 0 0 0.253343 0 0 0 0 0.167726 0 0 0 1 0"/>
<feBlend mode="normal" in2="BackgroundImageFix" result="effect1_dropShadow_1509_381"/>
<feBlend mode="normal" in="SourceGraphic" in2="effect1_dropShadow_1509_381" result="shape"/>
</filter>
<filter id="filter1_d_1509_381" x="918.284" y="40.3203" width="45.6699" height="45.5801" filterUnits="userSpaceOnUse" color-interpolation-filters="sRGB">
<feFlood flood-opacity="0" result="BackgroundImageFix"/>
<feColorMatrix in="SourceAlpha" type="matrix" values="0 0 0 0 0 0 0 0 0 0 0 0 0 0 0 0 0 0 127 0" result="hardAlpha"/>
<feOffset dx="-4" dy="4"/>
<feComposite in2="hardAlpha" operator="out"/>
<feColorMatrix type="matrix" values="0 0 0 0 0.167726 0 0 0 0 0.253343 0 0 0 0 0.167726 0 0 0 1 0"/>
<feBlend mode="normal" in2="BackgroundImageFix" result="effect1_dropShadow_1509_381"/>
<feBlend mode="normal" in="SourceGraphic" in2="effect1_dropShadow_1509_381" result="shape"/>
</filter>
<filter id="filter2_d_1509_381" x="862.988" y="18" width="56.1104" height="67" filterUnits="userSpaceOnUse" color-interpolation-filters="sRGB">
<feFlood flood-opacity="0" result="BackgroundImageFix"/>
<feColorMatrix in="SourceAlpha" type="matrix" values="0 0 0 0 0 0 0 0 0 0 0 0 0 0 0 0 0 0 127 0" result="hardAlpha"/>
<feOffset dx="-4" dy="4"/>
<feComposite in2="hardAlpha" operator="out"/>
<feColorMatrix type="matrix" values="0 0 0 0 0.167726 0 0 0 0 0.253343 0 0 0 0 0.167726 0 0 0 1 0"/>
<feBlend mode="normal" in2="BackgroundImageFix" result="effect1_dropShadow_1509_381"/>
<feBlend mode="normal" in="SourceGraphic" in2="effect1_dropShadow_1509_381" result="shape"/>
</filter>
<filter id="filter3_d_1509_381" x="801.195" y="33.3906" width="48.2803" height="73.7051" filterUnits="userSpaceOnUse" color-interpolation-filters="sRGB">
<feFlood flood-opacity="0" result="BackgroundImageFix"/>
<feColorMatrix in="SourceAlpha" type="matrix" values="0 0 0 0 0 0 0 0 0 0 0 0 0 0 0 0 0 0 127 0" result="hardAlpha"/>
<feOffset dx="-4" dy="4"/>
<feComposite in2="hardAlpha" operator="out"/>
<feColorMatrix type="matrix" values="0 0 0 0 0.167726 0 0 0 0 0.253343 0 0 0 0 0.167726 0 0 0 1 0"/>
<feBlend mode="normal" in2="BackgroundImageFix" result="effect1_dropShadow_1509_381"/>
<feBlend mode="normal" in="SourceGraphic" in2="effect1_dropShadow_1509_381" result="shape"/>
</filter>
<filter id="filter4_d_1509_381" x="754.011" y="40.3203" width="50.3955" height="44.6797" filterUnits="userSpaceOnUse" color-interpolation-filters="sRGB">
<feFlood flood-opacity="0" result="BackgroundImageFix"/>
<feColorMatrix in="SourceAlpha" type="matrix" values="0 0 0 0 0 0 0 0 0 0 0 0 0 0 0 0 0 0 127 0" result="hardAlpha"/>
<feOffset dx="-4" dy="4"/>
<feComposite in2="hardAlpha" operator="out"/>
<feColorMatrix type="matrix" values="0 0 0 0 0.167726 0 0 0 0 0.253343 0 0 0 0 0.167726 0 0 0 1 0"/>
<feBlend mode="normal" in2="BackgroundImageFix" result="effect1_dropShadow_1509_381"/>
<feBlend mode="normal" in="SourceGraphic" in2="effect1_dropShadow_1509_381" result="shape"/>
</filter>
<filter id="filter5_d_1509_381" x="732.042" y="21.5996" width="23.1699" height="63.4004" filterUnits="userSpaceOnUse" color-interpolation-filters="sRGB">
<feFlood flood-opacity="0" result="BackgroundImageFix"/>
<feColorMatrix in="SourceAlpha" type="matrix" values="0 0 0 0 0 0 0 0 0 0 0 0 0 0 0 0 0 0 127 0" result="hardAlpha"/>
<feOffset dx="-4" dy="4"/>
<feComposite in2="hardAlpha" operator="out"/>
<feColorMatrix type="matrix" values="0 0 0 0 0.167726 0 0 0 0 0.253343 0 0 0 0 0.167726 0 0 0 1 0"/>
<feBlend mode="normal" in2="BackgroundImageFix" result="effect1_dropShadow_1509_381"/>
<feBlend mode="normal" in="SourceGraphic" in2="effect1_dropShadow_1509_381" result="shape"/>
</filter>
<filter id="filter6_d_1509_381" x="702.964" y="31.6348" width="30.5498" height="54.1758" filterUnits="userSpaceOnUse" color-interpolation-filters="sRGB">
<feFlood flood-opacity="0" result="BackgroundImageFix"/>
<feColorMatrix in="SourceAlpha" type="matrix" values="0 0 0 0 0 0 0 0 0 0 0 0 0 0 0 0 0 0 127 0" result="hardAlpha"/>
<feOffset dx="-4" dy="4"/>
<feComposite in2="hardAlpha" operator="out"/>
<feColorMatrix type="matrix" values="0 0 0 0 0.167726 0 0 0 0 0.253343 0 0 0 0 0.167726 0 0 0 1 0"/>
<feBlend mode="normal" in2="BackgroundImageFix" result="effect1_dropShadow_1509_381"/>
<feBlend mode="normal" in="SourceGraphic" in2="effect1_dropShadow_1509_381" result="shape"/>
</filter>
<filter id="filter7_d_1509_381" x="664.011" y="40.2754" width="40.7646" height="45.625" filterUnits="userSpaceOnUse" color-interpolation-filters="sRGB">
<feFlood flood-opacity="0" result="BackgroundImageFix"/>
<feColorMatrix in="SourceAlpha" type="matrix" values="0 0 0 0 0 0 0 0 0 0 0 0 0 0 0 0 0 0 127 0" result="hardAlpha"/>
<feOffset dx="-4" dy="4"/>
<feComposite in2="hardAlpha" operator="out"/>
<feColorMatrix type="matrix" values="0 0 0 0 0.167726 0 0 0 0 0.253343 0 0 0 0 0.167726 0 0 0 1 0"/>
<feBlend mode="normal" in2="BackgroundImageFix" result="effect1_dropShadow_1509_381"/>
<feBlend mode="normal" in="SourceGraphic" in2="effect1_dropShadow_1509_381" result="shape"/>
</filter>
<filter id="filter8_d_1509_381" x="617.429" y="14.1758" width="49.4951" height="70.8242" filterUnits="userSpaceOnUse" color-interpolation-filters="sRGB">
<feFlood flood-opacity="0" result="BackgroundImageFix"/>
<feColorMatrix in="SourceAlpha" type="matrix" values="0 0 0 0 0 0 0 0 0 0 0 0 0 0 0 0 0 0 127 0" result="hardAlpha"/>
<feOffset dx="-4" dy="4"/>
<feComposite in2="hardAlpha" operator="out"/>
<feColorMatrix type="matrix" values="0 0 0 0 0.167726 0 0 0 0 0.253343 0 0 0 0 0.167726 0 0 0 1 0"/>
<feBlend mode="normal" in2="BackgroundImageFix" result="effect1_dropShadow_1509_381"/>
<feBlend mode="normal" in="SourceGraphic" in2="effect1_dropShadow_1509_381" result="shape"/>
</filter>
<filter id="filter9_d_1509_381" x="581.702" y="40.3203" width="37.4346" height="44.6797" filterUnits="userSpaceOnUse" color-interpolation-filters="sRGB">
<feFlood flood-opacity="0" result="BackgroundImageFix"/>
<feColorMatrix in="SourceAlpha" type="matrix" values="0 0 0 0 0 0 0 0 0 0 0 0 0 0 0 0 0 0 127 0" result="hardAlpha"/>
<feOffset dx="-4" dy="4"/>
<feComposite in2="hardAlpha" operator="out"/>
<feColorMatrix type="matrix" values="0 0 0 0 0.167726 0 0 0 0 0.253343 0 0 0 0 0.167726 0 0 0 1 0"/>
<feBlend mode="normal" in2="BackgroundImageFix" result="effect1_dropShadow_1509_381"/>
<feBlend mode="normal" in="SourceGraphic" in2="effect1_dropShadow_1509_381" result="shape"/>
</filter>
<filter id="filter10_d_1509_381" x="540.227" y="40.2754" width="42.79" height="45.5801" filterUnits="userSpaceOnUse" color-interpolation-filters="sRGB">
<feFlood flood-opacity="0" result="BackgroundImageFix"/>
<feColorMatrix in="SourceAlpha" type="matrix" values="0 0 0 0 0 0 0 0 0 0 0 0 0 0 0 0 0 0 127 0" result="hardAlpha"/>
<feOffset dx="-4" dy="4"/>
<feComposite in2="hardAlpha" operator="out"/>
<feColorMatrix type="matrix" values="0 0 0 0 0.167726 0 0 0 0 0.253343 0 0 0 0 0.167726 0 0 0 1 0"/>
<feBlend mode="normal" in2="BackgroundImageFix" result="effect1_dropShadow_1509_381"/>
<feBlend mode="normal" in="SourceGraphic" in2="effect1_dropShadow_1509_381" result="shape"/>
</filter>
<filter id="filter11_d_1509_381" x="463.837" y="18" width="77.3047" height="67" filterUnits="userSpaceOnUse" color-interpolation-filters="sRGB">
<feFlood flood-opacity="0" result="BackgroundImageFix"/>
<feColorMatrix in="SourceAlpha" type="matrix" values="0 0 0 0 0 0 0 0 0 0 0 0 0 0 0 0 0 0 127 0" result="hardAlpha"/>
<feOffset dx="-4" dy="4"/>
<feComposite in2="hardAlpha" operator="out"/>
<feColorMatrix type="matrix" values="0 0 0 0 0.167726 0 0 0 0 0.253343 0 0 0 0 0.167726 0 0 0 1 0"/>
<feBlend mode="normal" in2="BackgroundImageFix" result="effect1_dropShadow_1509_381"/>
<feBlend mode="normal" in="SourceGraphic" in2="effect1_dropShadow_1509_381" result="shape"/>
</filter>
<filter id="filter12_d_1509_381" x="391.81" y="18" width="61.2852" height="67" filterUnits="userSpaceOnUse" color-interpolation-filters="sRGB">
<feFlood flood-opacity="0" result="BackgroundImageFix"/>
<feColorMatrix in="SourceAlpha" type="matrix" values="0 0 0 0 0 0 0 0 0 0 0 0 0 0 0 0 0 0 127 0" result="hardAlpha"/>
<feOffset dx="-4" dy="4"/>
<feComposite in2="hardAlpha" operator="out"/>
<feColorMatrix type="matrix" values="0 0 0 0 0.167726 0 0 0 0 0.253343 0 0 0 0 0.167726 0 0 0 1 0"/>
<feBlend mode="normal" in2="BackgroundImageFix" result="effect1_dropShadow_1509_381"/>
<feBlend mode="normal" in="SourceGraphic" in2="effect1_dropShadow_1509_381" result="shape"/>
</filter>
<filter id="filter13_d_1509_381" x="340.918" y="18" width="56.1104" height="67" filterUnits="userSpaceOnUse" color-interpolation-filters="sRGB">
<feFlood flood-opacity="0" result="BackgroundImageFix"/>
<feColorMatrix in="SourceAlpha" type="matrix" values="0 0 0 0 0 0 0 0 0 0 0 0 0 0 0 0 0 0 127 0" result="hardAlpha"/>
<feOffset dx="-4" dy="4"/>
<feComposite in2="hardAlpha" operator="out"/>
<feColorMatrix type="matrix" values="0 0 0 0 0.167726 0 0 0 0 0.253343 0 0 0 0 0.167726 0 0 0 1 0"/>
<feBlend mode="normal" in2="BackgroundImageFix" result="effect1_dropShadow_1509_381"/>
<feBlend mode="normal" in="SourceGraphic" in2="effect1_dropShadow_1509_381" result="shape"/>
</filter>
<filter id="filter14_d_1509_381" x="282.102" y="16.7852" width="57.707" height="69.6094" filterUnits="userSpaceOnUse" color-interpolation-filters="sRGB">
<feFlood flood-opacity="0" result="BackgroundImageFix"/>
<feColorMatrix in="SourceAlpha" type="matrix" values="0 0 0 0 0 0 0 0 0 0 0 0 0 0 0 0 0 0 127 0" result="hardAlpha"/>
<feOffset dx="-4" dy="4"/>
<feComposite in2="hardAlpha" operator="out"/>
<feColorMatrix type="matrix" values="0 0 0 0 0.167726 0 0 0 0 0.253343 0 0 0 0 0.167726 0 0 0 1 0"/>
<feBlend mode="normal" in2="BackgroundImageFix" result="effect1_dropShadow_1509_381"/>
<feBlend mode="normal" in="SourceGraphic" in2="effect1_dropShadow_1509_381" result="shape"/>
</filter>
<filter id="filter15_d_1509_381" x="226.315" y="40.2754" width="40.7646" height="45.625" filterUnits="userSpaceOnUse" color-interpolation-filters="sRGB">
<feFlood flood-opacity="0" result="BackgroundImageFix"/>
<feColorMatrix in="SourceAlpha" type="matrix" values="0 0 0 0 0 0 0 0 0 0 0 0 0 0 0 0 0 0 127 0" result="hardAlpha"/>
<feOffset dx="-4" dy="4"/>
<feComposite in2="hardAlpha" operator="out"/>
<feColorMatrix type="matrix" values="0 0 0 0 0.167726 0 0 0 0 0.253343 0 0 0 0 0.167726 0 0 0 1 0"/>
<feBlend mode="normal" in2="BackgroundImageFix" result="effect1_dropShadow_1509_381"/>
<feBlend mode="normal" in="SourceGraphic" in2="effect1_dropShadow_1509_381" result="shape"/>
</filter>
<filter id="filter16_d_1509_381" x="178.767" y="14.1758" width="50.3945" height="70.8242" filterUnits="userSpaceOnUse" color-interpolation-filters="sRGB">
<feFlood flood-opacity="0" result="BackgroundImageFix"/>
<feColorMatrix in="SourceAlpha" type="matrix" values="0 0 0 0 0 0 0 0 0 0 0 0 0 0 0 0 0 0 127 0" result="hardAlpha"/>
<feOffset dx="-4" dy="4"/>
<feComposite in2="hardAlpha" operator="out"/>
<feColorMatrix type="matrix" values="0 0 0 0 0.167726 0 0 0 0 0.253343 0 0 0 0 0.167726 0 0 0 1 0"/>
<feBlend mode="normal" in2="BackgroundImageFix" result="effect1_dropShadow_1509_381"/>
<feBlend mode="normal" in="SourceGraphic" in2="effect1_dropShadow_1509_381" result="shape"/>
</filter>
<filter id="filter17_d_1509_381" x="121.872" y="16.7402" width="57.8789" height="68.2598" filterUnits="userSpaceOnUse" color-interpolation-filters="sRGB">
<feFlood flood-opacity="0" result="BackgroundImageFix"/>
<feColorMatrix in="SourceAlpha" type="matrix" values="0 0 0 0 0 0 0 0 0 0 0 0 0 0 0 0 0 0 127 0" result="hardAlpha"/>
<feOffset dx="-4" dy="4"/>
<feComposite in2="hardAlpha" operator="out"/>
<feColorMatrix type="matrix" values="0 0 0 0 0.167726 0 0 0 0 0.253343 0 0 0 0 0.167726 0 0 0 1 0"/>
<feBlend mode="normal" in2="BackgroundImageFix" result="effect1_dropShadow_1509_381"/>
<feBlend mode="normal" in="SourceGraphic" in2="effect1_dropShadow_1509_381" result="shape"/>
</filter>
</defs>
</svg>
